<svg width="229" height="61" viewBox="0 0 229 61" fill="none" xmlns="http://www.w3.org/2000/svg">
<circle cx="30" cy="31" r="30" fill="#12372A"/>
<path d="M20.8322 27.1178C23.1522 31.52 26.89 35.1289 31.4494 37.3689L34.9939 33.9467C35.445 33.5111 36.0733 33.3867 36.6372 33.5578C38.4417 34.1333 40.375 34.4444 42.3889 34.4444C42.8162 34.4444 43.226 34.6083 43.5281 34.9001C43.8303 35.1918 44 35.5874 44 36V41.4444C44 41.857 43.8303 42.2527 43.5281 42.5444C43.226 42.8361 42.8162 43 42.3889 43C35.1249 43 28.1584 40.2139 23.022 35.2546C17.8856 30.2953 15 23.5691 15 16.5556C15 16.143 15.1697 15.7473 15.4719 15.4556C15.774 15.1639 16.1838 15 16.6111 15H22.25C22.6773 15 23.0871 15.1639 23.3892 15.4556C23.6914 15.7473 23.8611 16.143 23.8611 16.5556C23.8611 18.5 24.1833 20.3667 24.7794 22.1089C24.9567 22.6533 24.8278 23.26 24.3767 23.6956L20.8322 27.1178Z" fill="#F1C30C"/>
<path d="M79.046 45.15V41.784H75.68V40.016H79.046V36.65H80.814V40.016H84.18V41.784H80.814V45.15H79.046ZM90.6328 46V42.957H85.5413V41.1805L90.2078 34.1H92.4008V41.189H93.4888V42.957H92.4008V46H90.6328ZM87.5983 41.1805L90.6328 41.189L90.6158 36.5395L87.5983 41.1805ZM99.0883 46.221C98.329 46.221 97.6348 46.034 97.0058 45.66C96.3768 45.2803 95.8725 44.776 95.4928 44.147C95.1188 43.5123 94.9318 42.8125 94.9318 42.0475C94.9318 41.6395 94.98 41.2712 95.0763 40.9425C95.1727 40.6138 95.32 40.2682 95.5183 39.9055L98.8673 34.1H100.924L98.6038 38.112C99.0742 38.0213 99.5332 38.0185 99.9808 38.1035C100.434 38.1828 100.859 38.3387 101.256 38.571C101.653 38.7977 102.001 39.0867 102.301 39.438C102.607 39.7837 102.845 40.1775 103.015 40.6195C103.185 41.0615 103.27 41.5375 103.27 42.0475C103.27 42.6198 103.16 43.1582 102.939 43.6625C102.724 44.1668 102.423 44.6117 102.038 44.997C101.658 45.3767 101.213 45.677 100.703 45.898C100.199 46.1133 99.6607 46.221 99.0883 46.221ZM99.0883 44.453C99.553 44.453 99.9667 44.3397 100.329 44.113C100.692 43.8863 100.978 43.5888 101.188 43.2205C101.398 42.8522 101.502 42.4612 101.502 42.0475C101.502 41.6112 101.395 41.2117 101.179 40.849C100.97 40.4863 100.684 40.1973 100.321 39.982C99.9582 39.761 99.553 39.6505 99.1053 39.6505C98.6407 39.6505 98.227 39.7638 97.8643 39.9905C97.5017 40.2172 97.2155 40.5118 97.0058 40.8745C96.8018 41.2372 96.6998 41.6282 96.6998 42.0475C96.6998 42.5065 96.8103 42.9173 97.0313 43.28C97.258 43.6427 97.5527 43.9288 97.9153 44.1385C98.278 44.3482 98.669 44.453 99.0883 44.453ZM112.444 46.221C111.724 46.221 111.07 46.0567 110.481 45.728C109.891 45.3993 109.421 44.9602 109.07 44.4105C108.724 43.8552 108.551 43.2375 108.551 42.5575C108.551 41.9852 108.693 41.4525 108.976 40.9595C109.259 40.4665 109.636 40.0585 110.107 39.7355C109.727 39.4522 109.418 39.0952 109.18 38.6645C108.942 38.2338 108.823 37.7692 108.823 37.2705C108.823 36.6472 108.985 36.0805 109.308 35.5705C109.636 35.0548 110.075 34.644 110.625 34.338C111.175 34.032 111.781 33.879 112.444 33.879C113.107 33.879 113.713 34.032 114.263 34.338C114.813 34.644 115.249 35.0548 115.572 35.5705C115.901 36.0805 116.065 36.6472 116.065 37.2705C116.065 37.7692 115.946 38.2338 115.708 38.6645C115.476 39.0952 115.167 39.4522 114.782 39.7355C115.263 40.0585 115.643 40.4665 115.921 40.9595C116.204 41.4525 116.346 41.9852 116.346 42.5575C116.346 43.2318 116.17 43.8467 115.819 44.402C115.467 44.9573 114.997 45.3993 114.408 45.728C113.818 46.0567 113.164 46.221 112.444 46.221ZM112.444 44.453C112.818 44.453 113.158 44.368 113.464 44.198C113.77 44.028 114.014 43.8013 114.195 43.518C114.382 43.229 114.476 42.9088 114.476 42.5575C114.476 42.2118 114.382 41.8973 114.195 41.614C114.014 41.325 113.77 41.0955 113.464 40.9255C113.158 40.7555 112.818 40.6705 112.444 40.6705C112.076 40.6705 111.736 40.7555 111.424 40.9255C111.118 41.0955 110.872 41.325 110.685 41.614C110.503 41.8973 110.413 42.2118 110.413 42.5575C110.413 42.9088 110.503 43.229 110.685 43.518C110.872 43.8013 111.118 44.028 111.424 44.198C111.736 44.368 112.076 44.453 112.444 44.453ZM112.444 38.9025C112.767 38.9025 113.059 38.8288 113.32 38.6815C113.586 38.5342 113.798 38.3387 113.957 38.095C114.116 37.8457 114.195 37.5708 114.195 37.2705C114.195 36.9702 114.116 36.6982 113.957 36.4545C113.798 36.2108 113.586 36.0153 113.32 35.868C113.059 35.7207 112.767 35.647 112.444 35.647C112.121 35.647 111.826 35.7207 111.56 35.868C111.299 36.0153 111.09 36.2108 110.931 36.4545C110.772 36.6982 110.693 36.9702 110.693 37.2705C110.693 37.5708 110.772 37.8457 110.931 38.095C111.09 38.3387 111.299 38.5342 111.56 38.6815C111.826 38.8288 112.121 38.9025 112.444 38.9025ZM123.202 46V35.868H121.783L122.267 34.1H124.97V46H123.202ZM127.012 46V44.4275C127.414 44.0932 127.876 43.705 128.398 43.263C128.919 42.8153 129.449 42.3422 129.987 41.8435C130.525 41.3392 131.021 40.8377 131.475 40.339C131.928 39.8347 132.293 39.3587 132.571 38.911C132.854 38.4577 132.996 38.0638 132.996 37.7295C132.996 37.3498 132.903 37.0042 132.716 36.6925C132.534 36.3752 132.288 36.123 131.976 35.936C131.664 35.7433 131.319 35.647 130.939 35.647C130.559 35.647 130.211 35.7433 129.894 35.936C129.582 36.123 129.33 36.3752 129.137 36.6925C128.95 37.0042 128.857 37.3498 128.857 37.7295H127.089C127.089 37.0098 127.264 36.361 127.616 35.783C127.973 35.1993 128.44 34.7375 129.018 34.3975C129.602 34.0518 130.242 33.879 130.939 33.879C131.642 33.879 132.282 34.0518 132.86 34.3975C133.438 34.7432 133.9 35.2078 134.246 35.7915C134.591 36.3695 134.764 37.0155 134.764 37.7295C134.764 38.1262 134.682 38.5342 134.518 38.9535C134.353 39.3728 134.124 39.8007 133.829 40.237C133.54 40.6733 133.203 41.1153 132.818 41.563C132.432 42.0107 132.019 42.4583 131.577 42.906C131.135 43.3537 130.684 43.7957 130.225 44.232H134.866V46H127.012ZM140.162 46.221C139.442 46.221 138.796 46.0538 138.224 45.7195C137.657 45.3852 137.21 44.9375 136.881 44.3765C136.552 43.8155 136.388 43.1922 136.388 42.5065H138.156C138.156 42.8635 138.241 43.1893 138.411 43.484C138.581 43.7787 138.816 44.0138 139.116 44.1895C139.417 44.3652 139.765 44.453 140.162 44.453C140.519 44.453 140.85 44.3652 141.156 44.1895C141.462 44.0138 141.709 43.7787 141.896 43.484C142.083 43.1893 142.176 42.8635 142.176 42.5065C142.176 42.0532 142.057 41.6735 141.819 41.3675C141.581 41.0615 141.25 40.8348 140.825 40.6875C140.406 40.5345 139.921 40.458 139.371 40.458V39.064C140.119 39.064 140.717 38.9167 141.165 38.622C141.613 38.3273 141.836 37.8882 141.836 37.3045C141.836 36.9985 141.754 36.7208 141.59 36.4715C141.431 36.2165 141.219 36.0153 140.952 35.868C140.692 35.715 140.411 35.6385 140.111 35.6385C139.799 35.6385 139.499 35.715 139.21 35.868C138.927 36.0153 138.694 36.2165 138.513 36.4715C138.332 36.7208 138.241 36.9985 138.241 37.3045H136.473C136.473 36.8342 136.569 36.3922 136.762 35.9785C136.96 35.5592 137.227 35.1937 137.561 34.882C137.901 34.5647 138.286 34.3182 138.717 34.1425C139.153 33.9612 139.609 33.8705 140.085 33.8705C140.709 33.8705 141.287 34.0263 141.819 34.338C142.358 34.644 142.788 35.0577 143.111 35.579C143.44 36.0947 143.604 36.6698 143.604 37.3045C143.604 37.8088 143.48 38.2877 143.23 38.741C142.987 39.1887 142.647 39.506 142.21 39.693C142.59 39.829 142.907 40.0443 143.162 40.339C143.423 40.628 143.619 40.9623 143.749 41.342C143.879 41.716 143.944 42.1042 143.944 42.5065C143.944 43.1865 143.772 43.8098 143.426 44.3765C143.08 44.9375 142.618 45.3852 142.04 45.7195C141.468 46.0538 140.842 46.221 140.162 46.221ZM150.644 46V35.868H149.225L149.709 34.1H152.412V46H150.644ZM154.454 46V44.4275C154.857 44.0932 155.319 43.705 155.84 43.263C156.361 42.8153 156.891 42.3422 157.429 41.8435C157.968 41.3392 158.464 40.8377 158.917 40.339C159.37 39.8347 159.736 39.3587 160.013 38.911C160.297 38.4577 160.438 38.0638 160.438 37.7295C160.438 37.3498 160.345 37.0042 160.158 36.6925C159.977 36.3752 159.73 36.123 159.418 35.936C159.107 35.7433 158.761 35.647 158.381 35.647C158.002 35.647 157.653 35.7433 157.336 35.936C157.024 36.123 156.772 36.3752 156.579 36.6925C156.392 37.0042 156.299 37.3498 156.299 37.7295H154.531C154.531 37.0098 154.707 36.361 155.058 35.783C155.415 35.1993 155.882 34.7375 156.46 34.3975C157.044 34.0518 157.684 33.879 158.381 33.879C159.084 33.879 159.724 34.0518 160.302 34.3975C160.88 34.7432 161.342 35.2078 161.688 35.7915C162.034 36.3695 162.206 37.0155 162.206 37.7295C162.206 38.1262 162.124 38.5342 161.96 38.9535C161.796 39.3728 161.566 39.8007 161.271 40.237C160.982 40.6733 160.645 41.1153 160.26 41.563C159.875 42.0107 159.461 42.4583 159.019 42.906C158.577 43.3537 158.126 43.7957 157.667 44.232H162.308V46H154.454ZM164 46V44.4275C164.403 44.0932 164.864 43.705 165.386 43.263C165.907 42.8153 166.437 42.3422 166.975 41.8435C167.514 41.3392 168.009 40.8377 168.463 40.339C168.916 39.8347 169.282 39.3587 169.559 38.911C169.843 38.4577 169.984 38.0638 169.984 37.7295C169.984 37.3498 169.891 37.0042 169.704 36.6925C169.522 36.3752 169.276 36.123 168.964 35.936C168.653 35.7433 168.307 35.647 167.927 35.647C167.548 35.647 167.199 35.7433 166.882 35.936C166.57 36.123 166.318 36.3752 166.125 36.6925C165.938 37.0042 165.845 37.3498 165.845 37.7295H164.077C164.077 37.0098 164.252 36.361 164.604 35.783C164.961 35.1993 165.428 34.7375 166.006 34.3975C166.59 34.0518 167.23 33.879 167.927 33.879C168.63 33.879 169.27 34.0518 169.848 34.3975C170.426 34.7432 170.888 35.2078 171.234 35.7915C171.579 36.3695 171.752 37.0155 171.752 37.7295C171.752 38.1262 171.67 38.5342 171.506 38.9535C171.341 39.3728 171.112 39.8007 170.817 40.237C170.528 40.6733 170.191 41.1153 169.806 41.563C169.42 42.0107 169.007 42.4583 168.565 42.906C168.123 43.3537 167.672 43.7957 167.213 44.232H171.854V46H164ZM182.722 46V42.957H177.63V41.1805L182.297 34.1H184.49V41.189H185.578V42.957H184.49V46H182.722ZM179.687 41.1805L182.722 41.189L182.705 36.5395L179.687 41.1805ZM192.367 46V42.957H187.276V41.1805L191.942 34.1H194.135V41.189H195.223V42.957H194.135V46H192.367ZM189.333 41.1805L192.367 41.189L192.35 36.5395L189.333 41.1805Z" fill="#12372A"/>
<path d="M84.216 21.312C83.08 21.312 82.012 21.088 81.012 20.64C80.012 20.184 79.132 19.56 78.372 18.768C77.62 17.968 77.028 17.04 76.596 15.984C76.172 14.928 75.96 13.8 75.96 12.6C75.96 11.4 76.172 10.272 76.596 9.216C77.028 8.16 77.62 7.236 78.372 6.444C79.132 5.644 80.012 5.02 81.012 4.572C82.012 4.116 83.08 3.888 84.216 3.888C85.576 3.888 86.828 4.204 87.972 4.836C89.116 5.468 90.064 6.308 90.816 7.356L88.596 8.544C88.076 7.888 87.432 7.364 86.664 6.972C85.896 6.58 85.08 6.384 84.216 6.384C83.416 6.384 82.668 6.548 81.972 6.876C81.276 7.204 80.664 7.652 80.136 8.22C79.608 8.788 79.196 9.448 78.9 10.2C78.604 10.952 78.456 11.752 78.456 12.6C78.456 13.456 78.604 14.26 78.9 15.012C79.196 15.756 79.608 16.416 80.136 16.992C80.672 17.56 81.288 18.008 81.984 18.336C82.68 18.656 83.424 18.816 84.216 18.816C85.096 18.816 85.916 18.62 86.676 18.228C87.444 17.828 88.084 17.3 88.596 16.644L90.816 17.856C90.064 18.904 89.116 19.744 87.972 20.376C86.828 21 85.576 21.312 84.216 21.312ZM101.854 9H104.35V21H101.842L101.746 19.26C101.394 19.876 100.918 20.372 100.318 20.748C99.7181 21.124 99.0101 21.312 98.1941 21.312C97.3141 21.312 96.4861 21.148 95.7101 20.82C94.9341 20.484 94.2501 20.02 93.6581 19.428C93.0741 18.836 92.6181 18.156 92.2901 17.388C91.9621 16.612 91.7981 15.78 91.7981 14.892C91.7981 14.036 91.9581 13.232 92.2781 12.48C92.5981 11.72 93.0421 11.056 93.6101 10.488C94.1781 9.92 94.8341 9.476 95.5781 9.156C96.3301 8.828 97.1341 8.664 97.9901 8.664C98.8621 8.664 99.6301 8.864 100.294 9.264C100.966 9.656 101.522 10.16 101.962 10.776L101.854 9ZM98.1341 18.9C98.8381 18.9 99.4541 18.728 99.9821 18.384C100.51 18.032 100.918 17.56 101.206 16.968C101.502 16.376 101.65 15.72 101.65 15C101.65 14.272 101.502 13.612 101.206 13.02C100.91 12.428 100.498 11.96 99.9701 11.616C99.4501 11.264 98.8381 11.088 98.1341 11.088C97.4381 11.088 96.8021 11.264 96.2261 11.616C95.6501 11.968 95.1941 12.44 94.8581 13.032C94.5221 13.624 94.3541 14.28 94.3541 15C94.3541 15.728 94.5261 16.388 94.8701 16.98C95.2221 17.564 95.6821 18.032 96.2501 18.384C96.8261 18.728 97.4541 18.9 98.1341 18.9ZM106.838 21V3H109.334V21H106.838ZM112.206 21V3H114.702V21H112.206ZM131.114 21.312C129.978 21.312 128.91 21.088 127.91 20.64C126.91 20.184 126.03 19.56 125.27 18.768C124.518 17.968 123.926 17.04 123.494 15.984C123.07 14.928 122.858 13.8 122.858 12.6C122.858 11.4 123.07 10.272 123.494 9.216C123.926 8.16 124.518 7.236 125.27 6.444C126.03 5.644 126.91 5.02 127.91 4.572C128.91 4.116 129.978 3.888 131.114 3.888C132.474 3.888 133.726 4.204 134.87 4.836C136.014 5.468 136.962 6.308 137.714 7.356L135.494 8.544C134.974 7.888 134.33 7.364 133.562 6.972C132.794 6.58 131.978 6.384 131.114 6.384C130.314 6.384 129.566 6.548 128.87 6.876C128.174 7.204 127.562 7.652 127.034 8.22C126.506 8.788 126.094 9.448 125.798 10.2C125.502 10.952 125.354 11.752 125.354 12.6C125.354 13.456 125.502 14.26 125.798 15.012C126.094 15.756 126.506 16.416 127.034 16.992C127.57 17.56 128.186 18.008 128.882 18.336C129.578 18.656 130.322 18.816 131.114 18.816C131.994 18.816 132.814 18.62 133.574 18.228C134.342 17.828 134.982 17.3 135.494 16.644L137.714 17.856C136.962 18.904 136.014 19.744 134.87 20.376C133.726 21 132.474 21.312 131.114 21.312ZM144.697 21.312C143.593 21.312 142.585 21.028 141.673 20.46C140.769 19.892 140.045 19.132 139.501 18.18C138.965 17.22 138.697 16.16 138.697 15C138.697 14.12 138.853 13.3 139.165 12.54C139.477 11.772 139.905 11.1 140.449 10.524C141.001 9.94 141.641 9.484 142.369 9.156C143.097 8.828 143.873 8.664 144.697 8.664C145.617 8.664 146.461 8.856 147.229 9.24C147.997 9.616 148.653 10.14 149.197 10.812C149.741 11.476 150.141 12.244 150.397 13.116C150.653 13.98 150.729 14.9 150.625 15.876H141.373C141.477 16.428 141.677 16.928 141.973 17.376C142.277 17.816 142.661 18.164 143.125 18.42C143.597 18.676 144.121 18.808 144.697 18.816C145.305 18.816 145.857 18.664 146.353 18.36C146.857 18.056 147.269 17.636 147.589 17.1L150.121 17.688C149.641 18.752 148.917 19.624 147.949 20.304C146.981 20.976 145.897 21.312 144.697 21.312ZM141.289 13.968H148.105C148.025 13.392 147.821 12.872 147.493 12.408C147.173 11.936 146.769 11.564 146.281 11.292C145.801 11.012 145.273 10.872 144.697 10.872C144.129 10.872 143.601 11.008 143.113 11.28C142.633 11.552 142.233 11.924 141.913 12.396C141.601 12.86 141.393 13.384 141.289 13.968ZM163.412 13.476V21H160.916V14.088C160.916 13.552 160.784 13.064 160.52 12.624C160.264 12.184 159.916 11.836 159.476 11.58C159.044 11.316 158.556 11.184 158.012 11.184C157.484 11.184 157 11.316 156.56 11.58C156.12 11.836 155.768 12.184 155.504 12.624C155.24 13.064 155.108 13.552 155.108 14.088V21H152.612V9H155.108V10.272C155.524 9.776 156.036 9.384 156.644 9.096C157.252 8.808 157.908 8.664 158.612 8.664C159.5 8.664 160.308 8.88 161.036 9.312C161.764 9.744 162.34 10.324 162.764 11.052C163.196 11.78 163.412 12.588 163.412 13.476ZM172.143 11.496H169.623L169.611 21H167.115L167.127 11.496H165.219V9H167.127L167.115 5.232H169.611L169.623 9H172.143V11.496ZM179.29 21.312C178.186 21.312 177.178 21.028 176.266 20.46C175.362 19.892 174.638 19.132 174.094 18.18C173.558 17.22 173.29 16.16 173.29 15C173.29 14.12 173.446 13.3 173.758 12.54C174.07 11.772 174.498 11.1 175.042 10.524C175.594 9.94 176.234 9.484 176.962 9.156C177.69 8.828 178.466 8.664 179.29 8.664C180.21 8.664 181.054 8.856 181.822 9.24C182.59 9.616 183.246 10.14 183.79 10.812C184.334 11.476 184.734 12.244 184.99 13.116C185.246 13.98 185.322 14.9 185.218 15.876H175.966C176.07 16.428 176.27 16.928 176.566 17.376C176.87 17.816 177.254 18.164 177.718 18.42C178.19 18.676 178.714 18.808 179.29 18.816C179.898 18.816 180.45 18.664 180.946 18.36C181.45 18.056 181.862 17.636 182.182 17.1L184.714 17.688C184.234 18.752 183.51 19.624 182.542 20.304C181.574 20.976 180.49 21.312 179.29 21.312ZM175.882 13.968H182.698C182.618 13.392 182.414 12.872 182.086 12.408C181.766 11.936 181.362 11.564 180.874 11.292C180.394 11.012 179.866 10.872 179.29 10.872C178.722 10.872 178.194 11.008 177.706 11.28C177.226 11.552 176.826 11.924 176.506 12.396C176.194 12.86 175.986 13.384 175.882 13.968ZM187.206 21V9H189.702V10.272C190.118 9.776 190.63 9.384 191.238 9.096C191.846 8.808 192.502 8.664 193.206 8.664C193.654 8.664 194.098 8.724 194.538 8.844L193.542 11.364C193.23 11.244 192.918 11.184 192.606 11.184C192.078 11.184 191.594 11.316 191.154 11.58C190.714 11.836 190.362 12.184 190.098 12.624C189.834 13.064 189.702 13.552 189.702 14.088V21H187.206Z" fill="#12372A"/>
</svg>
