<svg width="301" height="69" viewBox="0 0 301 69" fill="none" xmlns="http://www.w3.org/2000/svg">
<g filter="url(#filter0_d_85_56)">
<circle cx="34" cy="31" r="30" fill="#12372A"/>
<circle cx="34" cy="31" r="29.5" stroke="black"/>
</g>
<path d="M39.9796 30.5443L48.1813 23.4795V37.5284L39.9796 30.5443ZM29.4111 31.7407L32.2913 34.2195C32.7433 34.6002 33.3326 34.8302 33.9767 34.8302H33.9993H34.0167C34.662 34.8302 35.2514 34.5989 35.7087 34.2155L35.7047 34.2181L38.5849 31.7394L47.3399 39.1941H20.6601L29.4111 31.7407ZM20.6481 21.8045H47.3559L34.5274 32.8512C34.3837 32.9654 34.2048 33.0271 34.0207 33.0257H34.002H33.9847C33.7999 33.027 33.6204 32.9649 33.4766 32.8499L33.478 32.8512L20.6481 21.8045ZM19.8201 23.4782L28.0204 30.543L19.8201 37.5231V23.4782ZM48.6213 20.2512C48.3013 20.0925 47.9252 20 47.5266 20H20.4788C20.0925 20.0015 19.7116 20.0906 19.3654 20.2604L19.3801 20.2538C18.9665 20.4567 18.6183 20.77 18.3745 21.1584C18.1307 21.5467 18.001 21.9949 18 22.4523V38.5437C18.0007 39.195 18.2619 39.8193 18.7264 40.2798C19.1909 40.7403 19.8206 40.9993 20.4774 41H47.5226C48.1794 40.9993 48.8091 40.7403 49.2736 40.2798C49.7381 39.8193 49.9993 39.195 50 38.5437V22.4523C50 21.4912 49.4413 20.6584 48.6279 20.2578L48.6133 20.2512H48.6213Z" fill="#F1C30C"/>
<path d="M86.5705 41.586L88.1515 42.4445C87.7662 42.9828 87.276 43.4135 86.681 43.7365C86.0917 44.0595 85.4513 44.221 84.76 44.221C83.978 44.221 83.264 44.0198 82.618 43.6175C81.9777 43.2152 81.4648 42.6768 81.0795 42.0025C80.6998 41.3225 80.51 40.5717 80.51 39.75C80.51 39.1267 80.6205 38.5458 80.8415 38.0075C81.0625 37.4635 81.3657 36.9875 81.751 36.5795C82.142 36.1658 82.5953 35.8428 83.111 35.6105C83.6267 35.3782 84.1763 35.262 84.76 35.262C85.4513 35.262 86.0917 35.4235 86.681 35.7465C87.276 36.0695 87.7662 36.503 88.1515 37.047L86.5705 37.9055C86.3325 37.6222 86.0548 37.4068 85.7375 37.2595C85.4202 37.1065 85.0943 37.03 84.76 37.03C84.2953 37.03 83.8732 37.1575 83.4935 37.4125C83.1195 37.6618 82.822 37.9933 82.601 38.407C82.3857 38.815 82.278 39.2627 82.278 39.75C82.278 40.2317 82.3885 40.6793 82.6095 41.093C82.8305 41.501 83.128 41.8297 83.502 42.079C83.8817 42.3283 84.301 42.453 84.76 42.453C85.1113 42.453 85.4457 42.3737 85.763 42.215C86.0803 42.0563 86.3495 41.8467 86.5705 41.586ZM93.2102 44.221C92.4282 44.221 91.7142 44.0198 91.0682 43.6175C90.4279 43.2152 89.915 42.6768 89.5297 42.0025C89.15 41.3225 88.9602 40.5717 88.9602 39.75C88.9602 39.1267 89.0707 38.5458 89.2917 38.0075C89.5127 37.4635 89.8159 36.9875 90.2012 36.5795C90.5922 36.1658 91.0455 35.8428 91.5612 35.6105C92.0769 35.3782 92.6265 35.262 93.2102 35.262C93.9922 35.262 94.7034 35.4632 95.3437 35.8655C95.9897 36.2678 96.5025 36.809 96.8822 37.489C97.2675 38.169 97.4602 38.9227 97.4602 39.75C97.4602 40.3677 97.3497 40.9457 97.1287 41.484C96.9077 42.0223 96.6017 42.4983 96.2107 42.912C95.8254 43.32 95.3749 43.6402 94.8592 43.8725C94.3492 44.1048 93.7995 44.221 93.2102 44.221ZM93.2102 42.453C93.6805 42.453 94.1027 42.3283 94.4767 42.079C94.8507 41.8297 95.1454 41.501 95.3607 41.093C95.5817 40.6793 95.6922 40.2317 95.6922 39.75C95.6922 39.257 95.5789 38.8037 95.3522 38.39C95.1312 37.9763 94.8337 37.6477 94.4597 37.404C94.0857 37.1547 93.6692 37.03 93.2102 37.03C92.7455 37.03 92.3234 37.1547 91.9437 37.404C91.5697 37.6533 91.2722 37.9848 91.0512 38.3985C90.8359 38.8122 90.7282 39.2627 90.7282 39.75C90.7282 40.2543 90.8415 40.7105 91.0682 41.1185C91.2949 41.5265 91.5952 41.8523 91.9692 42.096C92.3489 42.334 92.7625 42.453 93.2102 42.453ZM106.483 38.6705V44H104.715V39.104C104.715 38.7243 104.622 38.3787 104.435 38.067C104.254 37.7553 104.007 37.5088 103.695 37.3275C103.389 37.1405 103.044 37.047 102.658 37.047C102.284 37.047 101.942 37.1405 101.63 37.3275C101.318 37.5088 101.069 37.7553 100.882 38.067C100.695 38.3787 100.601 38.7243 100.601 39.104V44H98.8335V35.5H100.601V36.401C100.896 36.0497 101.259 35.772 101.689 35.568C102.12 35.364 102.585 35.262 103.083 35.262C103.712 35.262 104.285 35.415 104.8 35.721C105.316 36.027 105.724 36.4378 106.024 36.9535C106.33 37.4692 106.483 38.0415 106.483 38.6705ZM112.668 37.268H110.883L110.875 44H109.107L109.115 37.268H107.764V35.5H109.115L109.107 32.831H110.875L110.883 35.5H112.668V37.268ZM120.604 35.5H122.372V44H120.595L120.527 42.7675C120.278 43.2038 119.941 43.5552 119.516 43.8215C119.091 44.0878 118.589 44.221 118.011 44.221C117.388 44.221 116.801 44.1048 116.252 43.8725C115.702 43.6345 115.218 43.3058 114.798 42.8865C114.385 42.4672 114.062 41.9855 113.829 41.4415C113.597 40.8918 113.481 40.3025 113.481 39.6735C113.481 39.0672 113.594 38.4977 113.821 37.965C114.047 37.4267 114.362 36.9563 114.764 36.554C115.167 36.1517 115.631 35.8372 116.158 35.6105C116.691 35.3782 117.26 35.262 117.867 35.262C118.484 35.262 119.028 35.4037 119.499 35.687C119.975 35.9647 120.369 36.3217 120.68 36.758L120.604 35.5ZM117.969 42.5125C118.467 42.5125 118.904 42.3907 119.278 42.147C119.652 41.8977 119.941 41.5633 120.145 41.144C120.354 40.7247 120.459 40.26 120.459 39.75C120.459 39.2343 120.354 38.7668 120.145 38.3475C119.935 37.9282 119.643 37.5967 119.269 37.353C118.901 37.1037 118.467 36.979 117.969 36.979C117.476 36.979 117.025 37.1037 116.617 37.353C116.209 37.6023 115.886 37.9367 115.648 38.356C115.41 38.7753 115.291 39.24 115.291 39.75C115.291 40.2657 115.413 40.7332 115.657 41.1525C115.906 41.5662 116.232 41.8977 116.634 42.147C117.042 42.3907 117.487 42.5125 117.969 42.5125ZM129.452 41.586L131.033 42.4445C130.648 42.9828 130.158 43.4135 129.563 43.7365C128.974 44.0595 128.333 44.221 127.642 44.221C126.86 44.221 126.146 44.0198 125.5 43.6175C124.86 43.2152 124.347 42.6768 123.961 42.0025C123.582 41.3225 123.392 40.5717 123.392 39.75C123.392 39.1267 123.502 38.5458 123.723 38.0075C123.944 37.4635 124.248 36.9875 124.633 36.5795C125.024 36.1658 125.477 35.8428 125.993 35.6105C126.509 35.3782 127.058 35.262 127.642 35.262C128.333 35.262 128.974 35.4235 129.563 35.7465C130.158 36.0695 130.648 36.503 131.033 37.047L129.452 37.9055C129.214 37.6222 128.937 37.4068 128.619 37.2595C128.302 37.1065 127.976 37.03 127.642 37.03C127.177 37.03 126.755 37.1575 126.375 37.4125C126.001 37.6618 125.704 37.9933 125.483 38.407C125.268 38.815 125.16 39.2627 125.16 39.75C125.16 40.2317 125.27 40.6793 125.491 41.093C125.712 41.501 126.01 41.8297 126.384 42.079C126.764 42.3283 127.183 42.453 127.642 42.453C127.993 42.453 128.328 42.3737 128.645 42.215C128.962 42.0563 129.231 41.8467 129.452 41.586ZM137.056 37.268H135.271L135.262 44H133.494L133.503 37.268H132.151V35.5H133.503L133.494 32.831H135.262L135.271 35.5H137.056V37.268ZM145.208 45.938C144.239 45.938 143.332 45.7737 142.488 45.445C141.649 45.122 140.909 44.663 140.269 44.068C139.634 43.4787 139.136 42.7817 138.773 41.977C138.416 41.1667 138.238 40.2798 138.238 39.3165C138.238 38.3588 138.416 37.4578 138.773 36.6135C139.136 35.7692 139.634 35.0297 140.269 34.395C140.909 33.7547 141.652 33.256 142.496 32.899C143.34 32.5363 144.244 32.355 145.208 32.355C146.171 32.355 147.075 32.5363 147.919 32.899C148.763 33.2617 149.503 33.7632 150.138 34.4035C150.772 35.0438 151.268 35.7862 151.625 36.6305C151.988 37.4692 152.169 38.3645 152.169 39.3165C152.169 39.8322 152.104 40.3422 151.974 40.8465C151.849 41.3452 151.662 41.7985 151.413 42.2065C151.169 42.6088 150.869 42.9318 150.512 43.1755C150.155 43.4135 149.747 43.5325 149.288 43.5325C148.948 43.5325 148.605 43.4588 148.259 43.3115C147.919 43.1585 147.627 42.9545 147.384 42.6995C147.14 42.4388 146.993 42.1527 146.942 41.841C146.721 42.1017 146.443 42.3113 146.109 42.47C145.78 42.623 145.406 42.6995 144.987 42.6995C144.369 42.6995 143.802 42.5493 143.287 42.249C142.777 41.943 142.369 41.535 142.063 41.025C141.762 40.5093 141.612 39.9398 141.612 39.3165C141.612 38.6932 141.762 38.1265 142.063 37.6165C142.369 37.1065 142.777 36.7013 143.287 36.401C143.802 36.095 144.369 35.942 144.987 35.942C145.383 35.942 145.769 36.0128 146.143 36.1545C146.522 36.2962 146.817 36.4917 147.027 36.741V36.112L148.378 36.3755V40.9825C148.378 41.2148 148.455 41.4047 148.608 41.552C148.766 41.6937 148.956 41.7645 149.177 41.7645C149.466 41.7645 149.698 41.6313 149.874 41.365C150.055 41.093 150.189 40.7672 150.274 40.3875C150.359 40.0022 150.401 39.6452 150.401 39.3165C150.401 38.5968 150.265 37.9225 149.993 37.2935C149.721 36.6645 149.344 36.112 148.863 35.636C148.387 35.16 147.834 34.7888 147.205 34.5225C146.582 34.2562 145.916 34.123 145.208 34.123C144.494 34.123 143.822 34.259 143.193 34.531C142.564 34.7973 142.009 35.1685 141.527 35.6445C141.051 36.1205 140.677 36.673 140.405 37.302C140.139 37.9253 140.006 38.5968 140.006 39.3165C140.006 40.0362 140.139 40.6935 140.405 41.2885C140.671 41.8835 141.043 42.3963 141.519 42.827C142 43.252 142.553 43.5835 143.176 43.8215C143.805 44.0595 144.482 44.1785 145.208 44.1785V45.938ZM145.123 41.3565C145.502 41.3565 145.834 41.2573 146.117 41.059C146.4 40.8607 146.621 40.6028 146.78 40.2855C146.939 39.9625 147.018 39.6225 147.018 39.2655C147.018 38.9085 146.942 38.5827 146.789 38.288C146.636 37.9877 146.417 37.7468 146.134 37.5655C145.851 37.3785 145.514 37.285 145.123 37.285C144.749 37.285 144.406 37.3757 144.094 37.557C143.788 37.7383 143.542 37.9848 143.355 38.2965C143.173 38.6025 143.083 38.9425 143.083 39.3165C143.083 39.6962 143.176 40.0418 143.363 40.3535C143.55 40.6595 143.797 40.9032 144.103 41.0845C144.414 41.2658 144.754 41.3565 145.123 41.3565ZM160.489 31.25H162.257V44H160.489V42.7505C160.211 43.1925 159.849 43.5495 159.401 43.8215C158.953 44.0878 158.429 44.221 157.829 44.221C157.211 44.221 156.633 44.1048 156.095 43.8725C155.556 43.6402 155.08 43.32 154.667 42.912C154.259 42.4983 153.938 42.0223 153.706 41.484C153.474 40.9457 153.358 40.3677 153.358 39.75C153.358 39.1323 153.474 38.5543 153.706 38.016C153.938 37.472 154.259 36.996 154.667 36.588C155.08 36.1743 155.556 35.8513 156.095 35.619C156.633 35.3867 157.211 35.2705 157.829 35.2705C158.429 35.2705 158.953 35.4065 159.401 35.6785C159.849 35.9448 160.211 36.2962 160.489 36.7325V31.25ZM157.846 42.5125C158.344 42.5125 158.781 42.3907 159.155 42.147C159.529 41.8977 159.818 41.5633 160.022 41.144C160.231 40.7247 160.336 40.26 160.336 39.75C160.336 39.2343 160.231 38.7668 160.022 38.3475C159.812 37.9282 159.52 37.5967 159.146 37.353C158.778 37.1037 158.344 36.979 157.846 36.979C157.353 36.979 156.902 37.1037 156.494 37.353C156.092 37.6023 155.769 37.9367 155.525 38.356C155.287 38.7753 155.168 39.24 155.168 39.75C155.168 40.2657 155.29 40.7332 155.534 41.1525C155.783 41.5662 156.109 41.8977 156.511 42.147C156.919 42.3907 157.364 42.5125 157.846 42.5125ZM167.917 44.221C167.135 44.221 166.421 44.0198 165.775 43.6175C165.135 43.2152 164.622 42.6768 164.237 42.0025C163.857 41.3225 163.667 40.5717 163.667 39.75C163.667 39.1267 163.778 38.5458 163.999 38.0075C164.22 37.4635 164.523 36.9875 164.908 36.5795C165.299 36.1658 165.753 35.8428 166.268 35.6105C166.784 35.3782 167.334 35.262 167.917 35.262C168.699 35.262 169.41 35.4632 170.051 35.8655C170.697 36.2678 171.21 36.809 171.589 37.489C171.975 38.169 172.167 38.9227 172.167 39.75C172.167 40.3677 172.057 40.9457 171.836 41.484C171.615 42.0223 171.309 42.4983 170.918 42.912C170.532 43.32 170.082 43.6402 169.566 43.8725C169.056 44.1048 168.507 44.221 167.917 44.221ZM167.917 42.453C168.388 42.453 168.81 42.3283 169.184 42.079C169.558 41.8297 169.852 41.501 170.068 41.093C170.289 40.6793 170.399 40.2317 170.399 39.75C170.399 39.257 170.286 38.8037 170.059 38.39C169.838 37.9763 169.541 37.6477 169.167 37.404C168.793 37.1547 168.376 37.03 167.917 37.03C167.453 37.03 167.03 37.1547 166.651 37.404C166.277 37.6533 165.979 37.9848 165.758 38.3985C165.543 38.8122 165.435 39.2627 165.435 39.75C165.435 40.2543 165.549 40.7105 165.775 41.1185C166.002 41.5265 166.302 41.8523 166.676 42.096C167.056 42.334 167.47 42.453 167.917 42.453ZM173.541 44V35.5H175.309V36.401C175.603 36.0497 175.963 35.772 176.388 35.568C176.819 35.364 177.283 35.262 177.782 35.262C178.388 35.262 178.947 35.4093 179.457 35.704C179.967 35.993 180.372 36.3783 180.672 36.86C180.972 36.3783 181.372 35.993 181.871 35.704C182.375 35.4093 182.93 35.262 183.537 35.262C184.166 35.262 184.738 35.415 185.254 35.721C185.769 36.027 186.18 36.4378 186.486 36.9535C186.792 37.4692 186.945 38.0415 186.945 38.6705V44H185.177V39.121C185.177 38.747 185.086 38.4042 184.905 38.0925C184.724 37.7808 184.48 37.5287 184.174 37.336C183.868 37.1433 183.528 37.047 183.154 37.047C182.78 37.047 182.44 37.1377 182.134 37.319C181.828 37.5003 181.584 37.7468 181.403 38.0585C181.222 38.3702 181.131 38.7243 181.131 39.121V44H179.363V39.121C179.363 38.7243 179.272 38.3702 179.091 38.0585C178.91 37.7468 178.663 37.5003 178.352 37.319C178.046 37.1377 177.706 37.047 177.332 37.047C176.963 37.047 176.623 37.1433 176.312 37.336C176.006 37.5287 175.762 37.7808 175.581 38.0925C175.399 38.4042 175.309 38.747 175.309 39.121V44H173.541ZM195.095 35.5H196.863V44H195.086L195.018 42.7675C194.769 43.2038 194.432 43.5552 194.007 43.8215C193.582 44.0878 193.08 44.221 192.502 44.221C191.879 44.221 191.293 44.1048 190.743 43.8725C190.193 43.6345 189.709 43.3058 189.289 42.8865C188.876 42.4672 188.553 41.9855 188.32 41.4415C188.088 40.8918 187.972 40.3025 187.972 39.6735C187.972 39.0672 188.085 38.4977 188.312 37.965C188.539 37.4267 188.853 36.9563 189.255 36.554C189.658 36.1517 190.122 35.8372 190.649 35.6105C191.182 35.3782 191.752 35.262 192.358 35.262C192.976 35.262 193.52 35.4037 193.99 35.687C194.466 35.9647 194.86 36.3217 195.171 36.758L195.095 35.5ZM192.46 42.5125C192.959 42.5125 193.395 42.3907 193.769 42.147C194.143 41.8977 194.432 41.5633 194.636 41.144C194.846 40.7247 194.95 40.26 194.95 39.75C194.95 39.2343 194.846 38.7668 194.636 38.3475C194.426 37.9282 194.134 37.5967 193.76 37.353C193.392 37.1037 192.959 36.979 192.46 36.979C191.967 36.979 191.516 37.1037 191.108 37.353C190.7 37.6023 190.377 37.9367 190.139 38.356C189.901 38.7753 189.782 39.24 189.782 39.75C189.782 40.2657 189.904 40.7332 190.148 41.1525C190.397 41.5662 190.723 41.8977 191.125 42.147C191.533 42.3907 191.978 42.5125 192.46 42.5125ZM198.559 35.5H200.327V44H198.559V35.5ZM199.46 34.2675C199.188 34.2675 198.961 34.1797 198.78 34.004C198.599 33.8283 198.508 33.6073 198.508 33.341C198.508 33.0803 198.599 32.8622 198.78 32.6865C198.961 32.5052 199.185 32.4145 199.452 32.4145C199.712 32.4145 199.933 32.5052 200.115 32.6865C200.296 32.8622 200.387 33.0803 200.387 33.341C200.387 33.6073 200.296 33.8283 200.115 34.004C199.939 34.1797 199.721 34.2675 199.46 34.2675ZM209.944 38.6705V44H208.176V39.104C208.176 38.7243 208.083 38.3787 207.896 38.067C207.715 37.7553 207.468 37.5088 207.156 37.3275C206.85 37.1405 206.505 37.047 206.119 37.047C205.745 37.047 205.403 37.1405 205.091 37.3275C204.779 37.5088 204.53 37.7553 204.343 38.067C204.156 38.3787 204.062 38.7243 204.062 39.104V44H202.294V35.5H204.062V36.401C204.357 36.0497 204.72 35.772 205.15 35.568C205.581 35.364 206.046 35.262 206.544 35.262C207.173 35.262 207.746 35.415 208.261 35.721C208.777 36.027 209.185 36.4378 209.485 36.9535C209.791 37.4692 209.944 38.0415 209.944 38.6705ZM212.228 44.221C211.967 44.221 211.746 44.1303 211.565 43.949C211.389 43.7677 211.301 43.5467 211.301 43.286C211.301 43.031 211.389 42.8128 211.565 42.6315C211.746 42.4502 211.967 42.3595 212.228 42.3595C212.488 42.3595 212.709 42.4502 212.891 42.6315C213.072 42.8128 213.163 43.031 213.163 43.286C213.163 43.5467 213.072 43.7677 212.891 43.949C212.709 44.1303 212.488 44.221 212.228 44.221ZM220.645 41.586L222.226 42.4445C221.84 42.9828 221.35 43.4135 220.755 43.7365C220.166 44.0595 219.526 44.221 218.834 44.221C218.052 44.221 217.338 44.0198 216.692 43.6175C216.052 43.2152 215.539 42.6768 215.154 42.0025C214.774 41.3225 214.584 40.5717 214.584 39.75C214.584 39.1267 214.695 38.5458 214.916 38.0075C215.137 37.4635 215.44 36.9875 215.825 36.5795C216.216 36.1658 216.67 35.8428 217.185 35.6105C217.701 35.3782 218.251 35.262 218.834 35.262C219.526 35.262 220.166 35.4235 220.755 35.7465C221.35 36.0695 221.84 36.503 222.226 37.047L220.645 37.9055C220.407 37.6222 220.129 37.4068 219.812 37.2595C219.494 37.1065 219.169 37.03 218.834 37.03C218.37 37.03 217.947 37.1575 217.568 37.4125C217.194 37.6618 216.896 37.9933 216.675 38.407C216.46 38.815 216.352 39.2627 216.352 39.75C216.352 40.2317 216.463 40.6793 216.684 41.093C216.905 41.501 217.202 41.8297 217.576 42.079C217.956 42.3283 218.375 42.453 218.834 42.453C219.186 42.453 219.52 42.3737 219.837 42.215C220.155 42.0563 220.424 41.8467 220.645 41.586ZM227.284 44.221C226.502 44.221 225.788 44.0198 225.142 43.6175C224.502 43.2152 223.989 42.6768 223.604 42.0025C223.224 41.3225 223.034 40.5717 223.034 39.75C223.034 39.1267 223.145 38.5458 223.366 38.0075C223.587 37.4635 223.89 36.9875 224.275 36.5795C224.666 36.1658 225.12 35.8428 225.635 35.6105C226.151 35.3782 226.701 35.262 227.284 35.262C228.066 35.262 228.778 35.4632 229.418 35.8655C230.064 36.2678 230.577 36.809 230.956 37.489C231.342 38.169 231.534 38.9227 231.534 39.75C231.534 40.3677 231.424 40.9457 231.203 41.484C230.982 42.0223 230.676 42.4983 230.285 42.912C229.9 43.32 229.449 43.6402 228.933 43.8725C228.423 44.1048 227.874 44.221 227.284 44.221ZM227.284 42.453C227.755 42.453 228.177 42.3283 228.551 42.079C228.925 41.8297 229.22 41.501 229.435 41.093C229.656 40.6793 229.766 40.2317 229.766 39.75C229.766 39.257 229.653 38.8037 229.426 38.39C229.205 37.9763 228.908 37.6477 228.534 37.404C228.16 37.1547 227.743 37.03 227.284 37.03C226.82 37.03 226.398 37.1547 226.018 37.404C225.644 37.6533 225.346 37.9848 225.125 38.3985C224.91 38.8122 224.802 39.2627 224.802 39.75C224.802 40.2543 224.916 40.7105 225.142 41.1185C225.369 41.5265 225.669 41.8523 226.043 42.096C226.423 42.334 226.837 42.453 227.284 42.453ZM232.908 44V35.5H234.676V36.401C234.97 36.0497 235.33 35.772 235.755 35.568C236.186 35.364 236.651 35.262 237.149 35.262C237.756 35.262 238.314 35.4093 238.824 35.704C239.334 35.993 239.739 36.3783 240.039 36.86C240.34 36.3783 240.739 35.993 241.238 35.704C241.742 35.4093 242.297 35.262 242.904 35.262C243.533 35.262 244.105 35.415 244.621 35.721C245.136 36.027 245.547 36.4378 245.853 36.9535C246.159 37.4692 246.312 38.0415 246.312 38.6705V44H244.544V39.121C244.544 38.747 244.454 38.4042 244.272 38.0925C244.091 37.7808 243.847 37.5287 243.541 37.336C243.235 37.1433 242.895 37.047 242.521 37.047C242.147 37.047 241.807 37.1377 241.501 37.319C241.195 37.5003 240.952 37.7468 240.77 38.0585C240.589 38.3702 240.498 38.7243 240.498 39.121V44H238.73V39.121C238.73 38.7243 238.64 38.3702 238.458 38.0585C238.277 37.7468 238.03 37.5003 237.719 37.319C237.413 37.1377 237.073 37.047 236.699 37.047C236.33 37.047 235.99 37.1433 235.679 37.336C235.373 37.5287 235.129 37.7808 234.948 38.0925C234.766 38.4042 234.676 38.747 234.676 39.121V44H232.908Z" fill="#12372A"/>
<path d="M80.44 21V4.2H90.868V6.696H82.936V10.752H89.32V13.248H82.936V18.504H90.868V21H80.44ZM93.5181 21V9H96.0141V10.272C96.4301 9.776 96.9381 9.384 97.5381 9.096C98.1461 8.808 98.8021 8.664 99.5061 8.664C100.362 8.664 101.15 8.872 101.87 9.288C102.59 9.696 103.162 10.24 103.586 10.92C104.01 10.24 104.574 9.696 105.278 9.288C105.99 8.872 106.774 8.664 107.63 8.664C108.518 8.664 109.326 8.88 110.054 9.312C110.782 9.744 111.362 10.324 111.794 11.052C112.226 11.78 112.442 12.588 112.442 13.476V21H109.946V14.112C109.946 13.584 109.818 13.1 109.562 12.66C109.306 12.22 108.962 11.864 108.53 11.592C108.098 11.32 107.618 11.184 107.09 11.184C106.562 11.184 106.082 11.312 105.65 11.568C105.218 11.824 104.874 12.172 104.618 12.612C104.362 13.052 104.234 13.552 104.234 14.112V21H101.738V14.112C101.738 13.552 101.61 13.052 101.354 12.612C101.098 12.172 100.75 11.824 100.31 11.568C99.8781 11.312 99.3981 11.184 98.8701 11.184C98.3501 11.184 97.8701 11.32 97.4301 11.592C96.9981 11.864 96.6541 12.22 96.3981 12.66C96.1421 13.1 96.0141 13.584 96.0141 14.112V21H93.5181ZM123.948 9H126.444V21H123.936L123.84 19.26C123.488 19.876 123.012 20.372 122.412 20.748C121.812 21.124 121.104 21.312 120.288 21.312C119.408 21.312 118.58 21.148 117.804 20.82C117.028 20.484 116.344 20.02 115.752 19.428C115.168 18.836 114.712 18.156 114.384 17.388C114.056 16.612 113.892 15.78 113.892 14.892C113.892 14.036 114.052 13.232 114.372 12.48C114.692 11.72 115.136 11.056 115.704 10.488C116.272 9.92 116.928 9.476 117.672 9.156C118.424 8.828 119.228 8.664 120.084 8.664C120.956 8.664 121.724 8.864 122.388 9.264C123.06 9.656 123.616 10.16 124.056 10.776L123.948 9ZM120.228 18.9C120.932 18.9 121.548 18.728 122.076 18.384C122.604 18.032 123.012 17.56 123.3 16.968C123.596 16.376 123.744 15.72 123.744 15C123.744 14.272 123.596 13.612 123.3 13.02C123.004 12.428 122.592 11.96 122.064 11.616C121.544 11.264 120.932 11.088 120.228 11.088C119.532 11.088 118.896 11.264 118.32 11.616C117.744 11.968 117.288 12.44 116.952 13.032C116.616 13.624 116.448 14.28 116.448 15C116.448 15.728 116.62 16.388 116.964 16.98C117.316 17.564 117.776 18.032 118.344 18.384C118.92 18.728 119.548 18.9 120.228 18.9ZM128.838 9H131.334V21H128.838V9ZM130.11 7.26C129.726 7.26 129.406 7.136 129.15 6.888C128.894 6.64 128.766 6.328 128.766 5.952C128.766 5.584 128.894 5.276 129.15 5.028C129.406 4.772 129.722 4.644 130.098 4.644C130.466 4.644 130.778 4.772 131.034 5.028C131.29 5.276 131.418 5.584 131.418 5.952C131.418 6.328 131.29 6.64 131.034 6.888C130.786 7.136 130.478 7.26 130.11 7.26ZM134.253 21V3H136.749V21H134.253ZM151.013 4.2H153.929L160.037 21H157.397L156.233 17.808H148.709L147.557 21H144.905L151.013 4.2ZM149.633 15.312H155.309L152.465 7.512L149.633 15.312ZM170.601 3H173.096V21H170.601V19.236C170.209 19.86 169.697 20.364 169.065 20.748C168.433 21.124 167.693 21.312 166.845 21.312C165.973 21.312 165.157 21.148 164.397 20.82C163.637 20.492 162.965 20.04 162.381 19.464C161.805 18.88 161.353 18.208 161.025 17.448C160.697 16.688 160.533 15.872 160.533 15C160.533 14.128 160.697 13.312 161.025 12.552C161.353 11.784 161.805 11.112 162.381 10.536C162.965 9.952 163.637 9.496 164.397 9.168C165.157 8.84 165.973 8.676 166.845 8.676C167.693 8.676 168.433 8.868 169.065 9.252C169.697 9.628 170.209 10.124 170.601 10.74V3ZM166.868 18.9C167.573 18.9 168.189 18.728 168.717 18.384C169.245 18.032 169.653 17.56 169.941 16.968C170.237 16.376 170.385 15.72 170.385 15C170.385 14.272 170.237 13.612 169.941 13.02C169.645 12.428 169.233 11.96 168.705 11.616C168.185 11.264 167.573 11.088 166.868 11.088C166.173 11.088 165.537 11.264 164.961 11.616C164.393 11.968 163.937 12.44 163.593 13.032C163.257 13.624 163.089 14.28 163.089 15C163.089 15.728 163.261 16.388 163.605 16.98C163.957 17.564 164.417 18.032 164.985 18.384C165.561 18.728 166.189 18.9 166.868 18.9ZM185.155 3H187.651V21H185.155V19.236C184.763 19.86 184.251 20.364 183.619 20.748C182.987 21.124 182.247 21.312 181.399 21.312C180.527 21.312 179.711 21.148 178.951 20.82C178.191 20.492 177.519 20.04 176.935 19.464C176.359 18.88 175.907 18.208 175.579 17.448C175.251 16.688 175.087 15.872 175.087 15C175.087 14.128 175.251 13.312 175.579 12.552C175.907 11.784 176.359 11.112 176.935 10.536C177.519 9.952 178.191 9.496 178.951 9.168C179.711 8.84 180.527 8.676 181.399 8.676C182.247 8.676 182.987 8.868 183.619 9.252C184.251 9.628 184.763 10.124 185.155 10.74V3ZM181.423 18.9C182.127 18.9 182.743 18.728 183.271 18.384C183.799 18.032 184.207 17.56 184.495 16.968C184.791 16.376 184.939 15.72 184.939 15C184.939 14.272 184.791 13.612 184.495 13.02C184.199 12.428 183.787 11.96 183.259 11.616C182.739 11.264 182.127 11.088 181.423 11.088C180.727 11.088 180.091 11.264 179.515 11.616C178.947 11.968 178.491 12.44 178.147 13.032C177.811 13.624 177.643 14.28 177.643 15C177.643 15.728 177.815 16.388 178.159 16.98C178.511 17.564 178.971 18.032 179.539 18.384C180.115 18.728 180.743 18.9 181.423 18.9ZM190.526 21V9H193.022V10.272C193.438 9.776 193.95 9.384 194.558 9.096C195.166 8.808 195.822 8.664 196.526 8.664C196.974 8.664 197.418 8.724 197.858 8.844L196.862 11.364C196.55 11.244 196.238 11.184 195.926 11.184C195.398 11.184 194.914 11.316 194.474 11.58C194.034 11.836 193.682 12.184 193.418 12.624C193.154 13.064 193.022 13.552 193.022 14.088V21H190.526ZM203.962 21.312C202.858 21.312 201.85 21.028 200.938 20.46C200.034 19.892 199.31 19.132 198.766 18.18C198.23 17.22 197.962 16.16 197.962 15C197.962 14.12 198.118 13.3 198.43 12.54C198.742 11.772 199.17 11.1 199.714 10.524C200.266 9.94 200.906 9.484 201.634 9.156C202.362 8.828 203.138 8.664 203.962 8.664C204.882 8.664 205.726 8.856 206.494 9.24C207.262 9.616 207.918 10.14 208.462 10.812C209.006 11.476 209.406 12.244 209.662 13.116C209.918 13.98 209.994 14.9 209.89 15.876H200.638C200.742 16.428 200.942 16.928 201.238 17.376C201.542 17.816 201.926 18.164 202.39 18.42C202.862 18.676 203.386 18.808 203.962 18.816C204.57 18.816 205.122 18.664 205.618 18.36C206.122 18.056 206.534 17.636 206.854 17.1L209.386 17.688C208.906 18.752 208.182 19.624 207.214 20.304C206.246 20.976 205.162 21.312 203.962 21.312ZM200.554 13.968H207.37C207.29 13.392 207.086 12.872 206.758 12.408C206.438 11.936 206.034 11.564 205.546 11.292C205.066 11.012 204.538 10.872 203.962 10.872C203.394 10.872 202.866 11.008 202.378 11.28C201.898 11.552 201.498 11.924 201.178 12.396C200.866 12.86 200.658 13.384 200.554 13.968ZM215.524 21.228C214.892 21.188 214.276 21.06 213.676 20.844C213.076 20.628 212.548 20.336 212.092 19.968C211.644 19.592 211.308 19.152 211.084 18.648L213.208 17.736C213.312 17.952 213.492 18.164 213.748 18.372C214.012 18.58 214.32 18.752 214.672 18.888C215.024 19.016 215.392 19.08 215.776 19.08C216.152 19.08 216.5 19.028 216.82 18.924C217.148 18.812 217.416 18.644 217.624 18.42C217.832 18.196 217.936 17.928 217.936 17.616C217.936 17.264 217.816 16.992 217.576 16.8C217.344 16.6 217.052 16.448 216.7 16.344C216.348 16.24 215.996 16.14 215.644 16.044C214.86 15.868 214.14 15.628 213.484 15.324C212.836 15.012 212.32 14.616 211.936 14.136C211.552 13.648 211.36 13.052 211.36 12.348C211.36 11.58 211.568 10.916 211.984 10.356C212.4 9.788 212.944 9.352 213.616 9.048C214.296 8.744 215.02 8.592 215.788 8.592C216.748 8.592 217.628 8.796 218.428 9.204C219.228 9.612 219.84 10.172 220.264 10.884L218.284 12.06C218.164 11.82 217.984 11.604 217.744 11.412C217.504 11.22 217.232 11.068 216.928 10.956C216.624 10.836 216.308 10.768 215.98 10.752C215.572 10.736 215.192 10.784 214.84 10.896C214.496 11 214.22 11.168 214.012 11.4C213.804 11.632 213.7 11.928 213.7 12.288C213.7 12.64 213.824 12.904 214.072 13.08C214.32 13.248 214.632 13.384 215.008 13.488C215.392 13.592 215.784 13.708 216.184 13.836C216.896 14.06 217.564 14.336 218.188 14.664C218.812 14.984 219.316 15.38 219.7 15.852C220.084 16.324 220.268 16.9 220.252 17.58C220.252 18.332 220.024 18.992 219.568 19.56C219.12 20.128 218.536 20.56 217.816 20.856C217.096 21.152 216.332 21.276 215.524 21.228ZM225.907 21.228C225.275 21.188 224.659 21.06 224.059 20.844C223.459 20.628 222.931 20.336 222.475 19.968C222.027 19.592 221.691 19.152 221.467 18.648L223.591 17.736C223.695 17.952 223.875 18.164 224.131 18.372C224.395 18.58 224.703 18.752 225.055 18.888C225.407 19.016 225.775 19.08 226.159 19.08C226.535 19.08 226.883 19.028 227.203 18.924C227.531 18.812 227.799 18.644 228.007 18.42C228.215 18.196 228.319 17.928 228.319 17.616C228.319 17.264 228.199 16.992 227.959 16.8C227.727 16.6 227.435 16.448 227.083 16.344C226.731 16.24 226.379 16.14 226.027 16.044C225.243 15.868 224.523 15.628 223.867 15.324C223.219 15.012 222.703 14.616 222.319 14.136C221.935 13.648 221.743 13.052 221.743 12.348C221.743 11.58 221.951 10.916 222.367 10.356C222.783 9.788 223.327 9.352 223.999 9.048C224.679 8.744 225.403 8.592 226.171 8.592C227.131 8.592 228.011 8.796 228.811 9.204C229.611 9.612 230.223 10.172 230.647 10.884L228.667 12.06C228.547 11.82 228.367 11.604 228.127 11.412C227.887 11.22 227.615 11.068 227.311 10.956C227.007 10.836 226.691 10.768 226.363 10.752C225.955 10.736 225.575 10.784 225.223 10.896C224.879 11 224.603 11.168 224.395 11.4C224.187 11.632 224.083 11.928 224.083 12.288C224.083 12.64 224.207 12.904 224.455 13.08C224.703 13.248 225.015 13.384 225.391 13.488C225.775 13.592 226.167 13.708 226.567 13.836C227.279 14.06 227.947 14.336 228.571 14.664C229.195 14.984 229.699 15.38 230.083 15.852C230.467 16.324 230.651 16.9 230.635 17.58C230.635 18.332 230.407 18.992 229.951 19.56C229.503 20.128 228.919 20.56 228.199 20.856C227.479 21.152 226.715 21.276 225.907 21.228Z" fill="#12372A"/>
<defs>
<filter id="filter0_d_85_56" x="0" y="1" width="68" height="68" filterUnits="userSpaceOnUse" color-interpolation-filters="sRGB">
<feFlood flood-opacity="0" result="BackgroundImageFix"/>
<feColorMatrix in="SourceAlpha" type="matrix" values="0 0 0 0 0 0 0 0 0 0 0 0 0 0 0 0 0 0 127 0" result="hardAlpha"/>
<feOffset dy="4"/>
<feGaussianBlur stdDeviation="2"/>
<feComposite in2="hardAlpha" operator="out"/>
<feColorMatrix type="matrix" values="0 0 0 0 0 0 0 0 0 0 0 0 0 0 0 0 0 0 0.25 0"/>
<feBlend mode="normal" in2="BackgroundImageFix" result="effect1_dropShadow_85_56"/>
<feBlend mode="normal" in="SourceGraphic" in2="effect1_dropShadow_85_56" result="shape"/>
</filter>
</defs>
</svg>
