<svg width="30" height="30" viewBox="0 0 30 30" fill="none" xmlns="http://www.w3.org/2000/svg">
<path d="M30 15C30 23.2843 23.2843 30 15 30C6.71573 30 0 23.2843 0 15C0 6.71573 6.71573 0 15 0C23.2843 0 30 6.71573 30 15Z" fill="#F1C30C"/>
<path d="M18.6601 5C17.2099 5 15.8191 5.534 14.7937 6.48453C13.7682 7.43505 13.1921 8.72425 13.1921 10.0685V12.8904H10.266C10.1194 12.8904 10 13 10 13.137V16.863C10 16.9989 10.1182 17.1096 10.266 17.1096H13.1921V24.7534C13.1921 24.8893 13.3103 25 13.4581 25H17.4778C17.6244 25 17.7438 24.8904 17.7438 24.7534V17.1096H20.696C20.8177 17.1096 20.9241 17.0329 20.9537 16.9233L21.9586 13.1973C21.9685 13.1609 21.9693 13.1229 21.961 13.0862C21.9527 13.0495 21.9354 13.0151 21.9106 12.9855C21.8857 12.9559 21.8539 12.932 21.8176 12.9155C21.7813 12.899 21.7413 12.8904 21.7009 12.8904H17.7438V10.0685C17.7438 9.95696 17.7675 9.84652 17.8136 9.74347C17.8596 9.64043 17.9271 9.5468 18.0122 9.46794C18.0973 9.38907 18.1983 9.32651 18.3095 9.28383C18.4206 9.24115 18.5398 9.21918 18.6601 9.21918H21.734C21.8806 9.21918 22 9.10959 22 8.9726V5.24658C22 5.11068 21.8818 5 21.734 5H18.6601Z" fill="#12372A"/>
</svg>
