<svg width="83" height="88" viewBox="0 0 83 88" fill="none" xmlns="http://www.w3.org/2000/svg">
<ellipse cx="41.5" cy="44" rx="41.5" ry="44" fill="#12372A"/>
<path d="M42.4998 21.4167C39.5998 21.4167 36.7282 21.988 34.0489 23.0977C31.3696 24.2075 28.9352 25.8342 26.8846 27.8848C22.7431 32.0262 20.4165 37.6432 20.4165 43.5001C20.4165 49.3569 22.7431 54.9739 26.8846 59.1154C28.9352 61.166 31.3696 62.7926 34.0489 63.9024C36.7282 65.0122 39.5998 65.5834 42.4998 65.5834C48.3567 65.5834 53.9737 63.2568 58.1151 59.1154C62.2565 54.9739 64.5832 49.3569 64.5832 43.5001C64.5832 40.6001 64.012 37.7284 62.9022 35.0492C61.7924 32.3699 60.1657 29.9354 58.1151 27.8848C56.0645 25.8342 53.63 24.2075 50.9508 23.0977C48.2715 21.988 45.3999 21.4167 42.4998 21.4167ZM51.7748 52.7751L40.2915 45.7084V32.4584H43.604V43.9417L53.5415 49.9042L51.7748 52.7751Z" fill="#F1C30C"/>
</svg>
