<svg width="83" height="88" viewBox="0 0 83 88" fill="none" xmlns="http://www.w3.org/2000/svg">
<ellipse cx="41.5" cy="44" rx="41.5" ry="44" fill="#12372A"/>
<path d="M64.5 20.1445L46.5 40.4216M38.5035 39.4316C32.9235 41.7027 28.4618 41.3138 24 39.4388C25.125 54.8088 31.884 60.7178 40.8952 63.0843C40.8952 63.0843 47.6835 57.9935 48.6623 45.9251C48.768 44.6178 48.8198 43.9666 48.5655 43.2294C48.309 42.4923 47.805 41.9651 46.7993 40.9083C45.1433 39.1716 44.3175 38.3033 43.3343 38.0838C42.351 37.8691 41.0685 38.3892 38.5035 39.4316Z" stroke="#F1C30C" stroke-width="1.5" stroke-linecap="round" stroke-linejoin="round"/>
<path d="M27.375 52.2205C27.375 52.2205 33 53.3751 38.625 48.771" stroke="#F1C30C" stroke-width="1.5" stroke-linecap="round" stroke-linejoin="round"/>
<path d="M36.375 30.2832C36.375 31.0741 36.0787 31.8325 35.5512 32.3917C35.0238 32.951 34.3084 33.2651 33.5625 33.2651C32.8166 33.2651 32.1012 32.951 31.5738 32.3917C31.0463 31.8325 30.75 31.0741 30.75 30.2832C30.75 29.4923 31.0463 28.7339 31.5738 28.1747C32.1012 27.6154 32.8166 27.3013 33.5625 27.3013C34.3084 27.3013 35.0238 27.6154 35.5512 28.1747C36.0787 28.7339 36.375 29.4923 36.375 30.2832Z" stroke="#F1C30C" stroke-width="1.5"/>
<path d="M42 22.53V22.7686" stroke="#F1C30C" stroke-width="2" stroke-linecap="round" stroke-linejoin="round"/>
</svg>
