<svg width="444" height="23" viewBox="0 0 444 23" fill="none" xmlns="http://www.w3.org/2000/svg">
<path d="M17.9984 13.46L12.7284 12.85L10.2084 15.37C7.36983 13.9259 5.0625 11.6186 3.61844 8.78L6.14844 6.25L5.53844 1H0.0284377C-0.551562 11.18 7.81844 19.55 17.9984 18.97V13.46Z" fill="white"/>
<path d="M31.6364 16.9545V9.45455H32.9091V16.9545H31.6364ZM28.5227 13.8409V12.5682H36.0227V13.8409H28.5227ZM38.4787 16.6136V15.4545L43.5923 7.36364H44.4332V9.15909H43.8651L40.0014 15.2727V15.3636H46.8878V16.6136H38.4787ZM43.956 19V16.2614V15.7216V7.36364H45.2969V19H43.956ZM52.8807 19.1591C52.4034 19.1515 51.9261 19.0606 51.4489 18.8864C50.9716 18.7121 50.536 18.4186 50.142 18.0057C49.7481 17.589 49.4318 17.0265 49.1932 16.3182C48.9545 15.6061 48.8352 14.7121 48.8352 13.6364C48.8352 12.6061 48.9318 11.6932 49.125 10.8977C49.3182 10.0985 49.5985 9.42614 49.9659 8.88068C50.3333 8.33144 50.7765 7.91477 51.2955 7.63068C51.8182 7.34659 52.4072 7.20455 53.0625 7.20455C53.714 7.20455 54.2936 7.33523 54.8011 7.59659C55.3125 7.85417 55.7292 8.21401 56.0511 8.67614C56.3731 9.13826 56.5814 9.67045 56.6761 10.2727H55.2898C55.161 9.75 54.911 9.31629 54.5398 8.97159C54.1686 8.62689 53.6761 8.45455 53.0625 8.45455C52.161 8.45455 51.4508 8.84659 50.9318 9.63068C50.4167 10.4148 50.1572 11.5152 50.1534 12.9318H50.2443C50.4564 12.6098 50.7083 12.3352 51 12.108C51.2955 11.8769 51.6212 11.6989 51.9773 11.5739C52.3333 11.4489 52.7102 11.3864 53.108 11.3864C53.7746 11.3864 54.3845 11.553 54.9375 11.8864C55.4905 12.2159 55.9337 12.6723 56.267 13.2557C56.6004 13.8352 56.767 14.5 56.767 15.25C56.767 15.9697 56.6061 16.6288 56.2841 17.2273C55.9621 17.822 55.5095 18.2955 54.9261 18.6477C54.3466 18.9962 53.6648 19.1667 52.8807 19.1591ZM52.8807 17.9091C53.358 17.9091 53.786 17.7898 54.1648 17.5511C54.5473 17.3125 54.8485 16.9924 55.0682 16.5909C55.2917 16.1894 55.4034 15.7424 55.4034 15.25C55.4034 14.7689 55.2955 14.3314 55.0795 13.9375C54.8674 13.5398 54.5739 13.2235 54.1989 12.9886C53.8277 12.7538 53.4034 12.6364 52.9261 12.6364C52.5663 12.6364 52.2311 12.7083 51.9205 12.8523C51.6098 12.9924 51.3371 13.1856 51.1023 13.4318C50.8712 13.678 50.6894 13.9602 50.5568 14.2784C50.4242 14.5928 50.358 14.9242 50.358 15.2727C50.358 15.7348 50.4659 16.1667 50.6818 16.5682C50.9015 16.9697 51.2008 17.2936 51.5795 17.5398C51.9621 17.786 52.3958 17.9091 52.8807 17.9091ZM67.2287 19.1591C66.4484 19.1591 65.759 19.0208 65.1605 18.7443C64.5658 18.464 64.1018 18.0795 63.7685 17.5909C63.4351 17.0985 63.2704 16.5379 63.2741 15.9091C63.2704 15.4167 63.367 14.9621 63.5639 14.5455C63.7609 14.125 64.0298 13.7746 64.3707 13.4943C64.7154 13.2102 65.0999 13.0303 65.5241 12.9545V12.8864C64.9673 12.7424 64.5241 12.4299 64.1946 11.9489C63.8651 11.464 63.7022 10.9129 63.706 10.2955C63.7022 9.70455 63.8518 9.17614 64.1548 8.71023C64.4579 8.24432 64.8745 7.87689 65.4048 7.60795C65.9389 7.33901 66.5469 7.20455 67.2287 7.20455C67.9029 7.20455 68.5052 7.33901 69.0355 7.60795C69.5658 7.87689 69.9825 8.24432 70.2855 8.71023C70.5923 9.17614 70.7476 9.70455 70.7514 10.2955C70.7476 10.9129 70.5791 11.464 70.2457 11.9489C69.9162 12.4299 69.4787 12.7424 68.9332 12.8864V12.9545C69.3537 13.0303 69.7325 13.2102 70.0696 13.4943C70.4067 13.7746 70.6757 14.125 70.8764 14.5455C71.0772 14.9621 71.1795 15.4167 71.1832 15.9091C71.1795 16.5379 71.009 17.0985 70.6719 17.5909C70.3385 18.0795 69.8745 18.464 69.2798 18.7443C68.6889 19.0208 68.0052 19.1591 67.2287 19.1591ZM67.2287 17.9091C67.7552 17.9091 68.2098 17.8239 68.5923 17.6534C68.9749 17.483 69.2704 17.2424 69.4787 16.9318C69.687 16.6212 69.7931 16.2576 69.7969 15.8409C69.7931 15.4015 69.6795 15.0133 69.456 14.6761C69.2325 14.339 68.9276 14.0739 68.5412 13.8807C68.1586 13.6875 67.7211 13.5909 67.2287 13.5909C66.7325 13.5909 66.2893 13.6875 65.8991 13.8807C65.5128 14.0739 65.2079 14.339 64.9844 14.6761C64.7647 15.0133 64.6567 15.4015 64.6605 15.8409C64.6567 16.2576 64.7571 16.6212 64.9616 16.9318C65.17 17.2424 65.4673 17.483 65.8537 17.6534C66.2401 17.8239 66.6984 17.9091 67.2287 17.9091ZM67.2287 12.3864C67.6454 12.3864 68.0147 12.303 68.3366 12.1364C68.6624 11.9697 68.9181 11.7367 69.1037 11.4375C69.2893 11.1383 69.384 10.7879 69.3878 10.3864C69.384 9.99242 69.2912 9.64962 69.1094 9.35795C68.9276 9.0625 68.6757 8.83523 68.3537 8.67614C68.0317 8.51326 67.6567 8.43182 67.2287 8.43182C66.7931 8.43182 66.4124 8.51326 66.0866 8.67614C65.7609 8.83523 65.509 9.0625 65.331 9.35795C65.1529 9.64962 65.0658 9.99242 65.0696 10.3864C65.0658 10.7879 65.1548 11.1383 65.3366 11.4375C65.5223 11.7367 65.7779 11.9697 66.1037 12.1364C66.4295 12.303 66.8045 12.3864 67.2287 12.3864ZM81.9517 7.36364V19H80.5426V8.84091H80.4744L77.6335 10.7273V9.29545L80.5426 7.36364H81.9517ZM85.2983 19V17.9773L89.1392 13.7727C89.59 13.2803 89.9612 12.8523 90.2528 12.4886C90.5445 12.1212 90.7604 11.7765 90.9006 11.4545C91.0445 11.1288 91.1165 10.7879 91.1165 10.4318C91.1165 10.0227 91.018 9.66856 90.821 9.36932C90.6278 9.07008 90.3627 8.83901 90.0256 8.67614C89.6884 8.51326 89.3097 8.43182 88.8892 8.43182C88.4422 8.43182 88.0521 8.52462 87.7188 8.71023C87.3892 8.89205 87.1335 9.14773 86.9517 9.47727C86.7737 9.80682 86.6847 10.1932 86.6847 10.6364H85.3438C85.3438 9.95455 85.5009 9.35606 85.8153 8.84091C86.1297 8.32576 86.5578 7.92424 87.0994 7.63636C87.6449 7.34848 88.2566 7.20455 88.9347 7.20455C89.6165 7.20455 90.2206 7.34848 90.7472 7.63636C91.2737 7.92424 91.6866 8.3125 91.9858 8.80114C92.285 9.28977 92.4347 9.83333 92.4347 10.4318C92.4347 10.8598 92.357 11.2784 92.2017 11.6875C92.0502 12.0928 91.785 12.5455 91.4062 13.0455C91.0312 13.5417 90.5104 14.1477 89.8438 14.8636L87.2301 17.6591V17.75H92.6392V19H85.2983ZM98.9176 19.1591C98.1676 19.1591 97.4991 19.0303 96.9119 18.7727C96.3286 18.5152 95.8646 18.1572 95.5199 17.6989C95.179 17.2367 94.9934 16.7008 94.9631 16.0909H96.3949C96.4252 16.4659 96.554 16.7898 96.7812 17.0625C97.0085 17.3314 97.3059 17.5398 97.6733 17.6875C98.0407 17.8352 98.4479 17.9091 98.8949 17.9091C99.3949 17.9091 99.8381 17.822 100.224 17.6477C100.611 17.4735 100.914 17.2311 101.134 16.9205C101.353 16.6098 101.463 16.25 101.463 15.8409C101.463 15.4129 101.357 15.036 101.145 14.7102C100.933 14.3807 100.622 14.1231 100.213 13.9375C99.804 13.7519 99.304 13.6591 98.7131 13.6591H97.7812V12.4091H98.7131C99.1752 12.4091 99.5805 12.3258 99.929 12.1591C100.281 11.9924 100.556 11.7576 100.753 11.4545C100.954 11.1515 101.054 10.7955 101.054 10.3864C101.054 9.99242 100.967 9.64962 100.793 9.35795C100.618 9.06629 100.372 8.83901 100.054 8.67614C99.7396 8.51326 99.3684 8.43182 98.9403 8.43182C98.5388 8.43182 98.16 8.50568 97.804 8.65341C97.4517 8.79735 97.1638 9.00758 96.9403 9.28409C96.7169 9.55682 96.5956 9.88636 96.5767 10.2727H95.2131C95.2358 9.66288 95.4195 9.12879 95.7642 8.67045C96.1089 8.20833 96.5597 7.84848 97.1165 7.59091C97.6771 7.33333 98.2926 7.20455 98.9631 7.20455C99.6828 7.20455 100.3 7.35038 100.815 7.64205C101.33 7.92992 101.726 8.31061 102.003 8.78409C102.279 9.25758 102.418 9.76894 102.418 10.3182C102.418 10.9735 102.245 11.5322 101.901 11.9943C101.56 12.4564 101.096 12.7765 100.509 12.9545V13.0455C101.243 13.1667 101.817 13.4792 102.23 13.983C102.643 14.483 102.849 15.1023 102.849 15.8409C102.849 16.4735 102.677 17.0417 102.332 17.5455C101.991 18.0455 101.526 18.4394 100.935 18.7273C100.344 19.0152 99.6714 19.1591 98.9176 19.1591ZM113.764 7.36364V19H112.355V8.84091H112.287L109.446 10.7273V9.29545L112.355 7.36364H113.764ZM117.111 19V17.9773L120.952 13.7727C121.402 13.2803 121.774 12.8523 122.065 12.4886C122.357 12.1212 122.573 11.7765 122.713 11.4545C122.857 11.1288 122.929 10.7879 122.929 10.4318C122.929 10.0227 122.83 9.66856 122.634 9.36932C122.44 9.07008 122.175 8.83901 121.838 8.67614C121.501 8.51326 121.122 8.43182 120.702 8.43182C120.255 8.43182 119.865 8.52462 119.531 8.71023C119.202 8.89205 118.946 9.14773 118.764 9.47727C118.586 9.80682 118.497 10.1932 118.497 10.6364H117.156C117.156 9.95455 117.313 9.35606 117.628 8.84091C117.942 8.32576 118.37 7.92424 118.912 7.63636C119.457 7.34848 120.069 7.20455 120.747 7.20455C121.429 7.20455 122.033 7.34848 122.56 7.63636C123.086 7.92424 123.499 8.3125 123.798 8.80114C124.098 9.28977 124.247 9.83333 124.247 10.4318C124.247 10.8598 124.17 11.2784 124.014 11.6875C123.863 12.0928 123.598 12.5455 123.219 13.0455C122.844 13.5417 122.323 14.1477 121.656 14.8636L119.043 17.6591V17.75H124.452V19H117.111ZM126.798 19V17.9773L130.639 13.7727C131.09 13.2803 131.461 12.8523 131.753 12.4886C132.045 12.1212 132.26 11.7765 132.401 11.4545C132.545 11.1288 132.616 10.7879 132.616 10.4318C132.616 10.0227 132.518 9.66856 132.321 9.36932C132.128 9.07008 131.863 8.83901 131.526 8.67614C131.188 8.51326 130.81 8.43182 130.389 8.43182C129.942 8.43182 129.552 8.52462 129.219 8.71023C128.889 8.89205 128.634 9.14773 128.452 9.47727C128.274 9.80682 128.185 10.1932 128.185 10.6364H126.844C126.844 9.95455 127.001 9.35606 127.315 8.84091C127.63 8.32576 128.058 7.92424 128.599 7.63636C129.145 7.34848 129.757 7.20455 130.435 7.20455C131.116 7.20455 131.721 7.34848 132.247 7.63636C132.774 7.92424 133.187 8.3125 133.486 8.80114C133.785 9.28977 133.935 9.83333 133.935 10.4318C133.935 10.8598 133.857 11.2784 133.702 11.6875C133.55 12.0928 133.285 12.5455 132.906 13.0455C132.531 13.5417 132.01 14.1477 131.344 14.8636L128.73 17.6591V17.75H134.139V19H126.798ZM140.713 16.6136V15.4545L145.827 7.36364H146.668V9.15909H146.099L142.236 15.2727V15.3636H149.122V16.6136H140.713ZM146.19 19V16.2614V15.7216V7.36364H147.531V19H146.19ZM150.979 16.6136V15.4545L156.092 7.36364H156.933V9.15909H156.365L152.501 15.2727V15.3636H159.388V16.6136H150.979ZM156.456 19V16.2614V15.7216V7.36364H157.797V19H156.456Z" fill="white"/>
<path d="M196 7.36L204 12.36L212 7.36L204 2.36L196 7.36ZM214 7.36V17.36C214 17.8904 213.789 18.3991 213.414 18.7742C213.039 19.1493 212.53 19.36 212 19.36H196C195.47 19.36 194.961 19.1493 194.586 18.7742C194.211 18.3991 194 17.8904 194 17.36V7.36C194 6.63 194.39 6 194.97 5.65L204 0L213.03 5.65C213.61 6 214 6.63 214 7.36Z" fill="white"/>
<path d="M229.773 19.1818C228.955 19.1818 228.25 18.9886 227.659 18.6023C227.068 18.2159 226.614 17.6837 226.295 17.0057C225.977 16.3277 225.818 15.553 225.818 14.6818C225.818 13.7955 225.981 13.0133 226.307 12.3352C226.636 11.6534 227.095 11.1212 227.682 10.7386C228.273 10.3523 228.962 10.1591 229.75 10.1591C230.364 10.1591 230.917 10.2727 231.409 10.5C231.902 10.7273 232.305 11.0455 232.619 11.4545C232.934 11.8636 233.129 12.3409 233.205 12.8864H231.864C231.761 12.4886 231.534 12.1364 231.182 11.8295C230.833 11.5189 230.364 11.3636 229.773 11.3636C229.25 11.3636 228.792 11.5 228.398 11.7727C228.008 12.0417 227.703 12.4223 227.483 12.9148C227.267 13.4034 227.159 13.9773 227.159 14.6364C227.159 15.3106 227.265 15.8977 227.477 16.3977C227.693 16.8977 227.996 17.286 228.386 17.5625C228.78 17.839 229.242 17.9773 229.773 17.9773C230.121 17.9773 230.438 17.9167 230.722 17.7955C231.006 17.6742 231.246 17.5 231.443 17.2727C231.64 17.0455 231.78 16.7727 231.864 16.4545H233.205C233.129 16.9697 232.941 17.4337 232.642 17.8466C232.347 18.2557 231.955 18.5814 231.466 18.8239C230.981 19.0625 230.417 19.1818 229.773 19.1818ZM238.71 19.1818C237.922 19.1818 237.231 18.9943 236.636 18.6193C236.045 18.2443 235.583 17.7197 235.25 17.0455C234.92 16.3712 234.756 15.5833 234.756 14.6818C234.756 13.7727 234.92 12.9792 235.25 12.3011C235.583 11.6231 236.045 11.0966 236.636 10.7216C237.231 10.3466 237.922 10.1591 238.71 10.1591C239.498 10.1591 240.188 10.3466 240.778 10.7216C241.373 11.0966 241.835 11.6231 242.165 12.3011C242.498 12.9792 242.665 13.7727 242.665 14.6818C242.665 15.5833 242.498 16.3712 242.165 17.0455C241.835 17.7197 241.373 18.2443 240.778 18.6193C240.188 18.9943 239.498 19.1818 238.71 19.1818ZM238.71 17.9773C239.309 17.9773 239.801 17.8239 240.188 17.517C240.574 17.2102 240.86 16.8068 241.045 16.3068C241.231 15.8068 241.324 15.2652 241.324 14.6818C241.324 14.0985 241.231 13.5549 241.045 13.0511C240.86 12.5473 240.574 12.1402 240.188 11.8295C239.801 11.5189 239.309 11.3636 238.71 11.3636C238.112 11.3636 237.619 11.5189 237.233 11.8295C236.847 12.1402 236.561 12.5473 236.375 13.0511C236.189 13.5549 236.097 14.0985 236.097 14.6818C236.097 15.2652 236.189 15.8068 236.375 16.3068C236.561 16.8068 236.847 17.2102 237.233 17.517C237.619 17.8239 238.112 17.9773 238.71 17.9773ZM246.053 13.75V19H244.712V10.2727H246.007V11.6364H246.121C246.325 11.1932 246.636 10.8371 247.053 10.5682C247.469 10.2955 248.007 10.1591 248.666 10.1591C249.257 10.1591 249.774 10.2803 250.217 10.5227C250.661 10.7614 251.005 11.125 251.251 11.6136C251.498 12.0985 251.621 12.7121 251.621 13.4545V19H250.28V13.5455C250.28 12.8598 250.102 12.3258 249.746 11.9432C249.39 11.5568 248.901 11.3636 248.28 11.3636C247.852 11.3636 247.469 11.4564 247.132 11.642C246.799 11.8277 246.536 12.0985 246.342 12.4545C246.149 12.8106 246.053 13.2424 246.053 13.75ZM257.866 10.2727V11.4091H253.344V10.2727H257.866ZM254.662 8.18182H256.003V16.5C256.003 16.8788 256.058 17.1629 256.168 17.3523C256.281 17.5379 256.425 17.6629 256.599 17.7273C256.777 17.7879 256.965 17.8182 257.162 17.8182C257.31 17.8182 257.431 17.8106 257.526 17.7955C257.62 17.7765 257.696 17.7614 257.753 17.75L258.026 18.9545C257.935 18.9886 257.808 19.0227 257.645 19.0568C257.482 19.0947 257.276 19.1136 257.026 19.1136C256.647 19.1136 256.276 19.0322 255.912 18.8693C255.552 18.7064 255.253 18.4583 255.014 18.125C254.779 17.7917 254.662 17.3712 254.662 16.8636V8.18182ZM262.452 19.2045C261.899 19.2045 261.397 19.1004 260.946 18.892C260.495 18.6799 260.137 18.375 259.872 17.9773C259.607 17.5758 259.474 17.0909 259.474 16.5227C259.474 16.0227 259.573 15.6174 259.77 15.3068C259.967 14.9924 260.23 14.7462 260.56 14.5682C260.889 14.3902 261.253 14.2576 261.651 14.1705C262.052 14.0795 262.455 14.0076 262.861 13.9545C263.391 13.8864 263.821 13.8352 264.151 13.8011C264.484 13.7633 264.726 13.7008 264.878 13.6136C265.033 13.5265 265.111 13.375 265.111 13.1591V13.1136C265.111 12.553 264.957 12.1174 264.651 11.8068C264.348 11.4962 263.887 11.3409 263.27 11.3409C262.63 11.3409 262.128 11.4811 261.764 11.7614C261.401 12.0417 261.145 12.3409 260.997 12.6591L259.724 12.2045C259.952 11.6742 260.255 11.2614 260.634 10.9659C261.016 10.6667 261.433 10.4583 261.884 10.3409C262.338 10.2197 262.785 10.1591 263.224 10.1591C263.505 10.1591 263.827 10.1932 264.19 10.2614C264.558 10.3258 264.912 10.4602 265.253 10.6648C265.598 10.8693 265.884 11.178 266.111 11.5909C266.338 12.0038 266.452 12.5568 266.452 13.25V19H265.111V17.8182H265.043C264.952 18.0076 264.8 18.2102 264.588 18.4261C264.376 18.642 264.094 18.8258 263.741 18.9773C263.389 19.1288 262.959 19.2045 262.452 19.2045ZM262.656 18C263.187 18 263.634 17.8958 263.997 17.6875C264.365 17.4792 264.641 17.2102 264.827 16.8807C265.016 16.5511 265.111 16.2045 265.111 15.8409V14.6136C265.054 14.6818 264.929 14.7443 264.736 14.8011C264.546 14.8542 264.327 14.9015 264.077 14.9432C263.83 14.9811 263.59 15.0152 263.355 15.0455C263.124 15.072 262.937 15.0947 262.793 15.1136C262.444 15.1591 262.118 15.233 261.815 15.3352C261.516 15.4337 261.274 15.5833 261.088 15.7841C260.906 15.9811 260.815 16.25 260.815 16.5909C260.815 17.0568 260.988 17.4091 261.332 17.6477C261.681 17.8826 262.122 18 262.656 18ZM272.445 19.1818C271.626 19.1818 270.922 18.9886 270.331 18.6023C269.74 18.2159 269.286 17.6837 268.967 17.0057C268.649 16.3277 268.49 15.553 268.49 14.6818C268.49 13.7955 268.653 13.0133 268.979 12.3352C269.308 11.6534 269.767 11.1212 270.354 10.7386C270.945 10.3523 271.634 10.1591 272.422 10.1591C273.036 10.1591 273.589 10.2727 274.081 10.5C274.573 10.7273 274.977 11.0455 275.291 11.4545C275.606 11.8636 275.801 12.3409 275.876 12.8864H274.536C274.433 12.4886 274.206 12.1364 273.854 11.8295C273.505 11.5189 273.036 11.3636 272.445 11.3636C271.922 11.3636 271.464 11.5 271.07 11.7727C270.679 12.0417 270.375 12.4223 270.155 12.9148C269.939 13.4034 269.831 13.9773 269.831 14.6364C269.831 15.3106 269.937 15.8977 270.149 16.3977C270.365 16.8977 270.668 17.286 271.058 17.5625C271.452 17.839 271.914 17.9773 272.445 17.9773C272.793 17.9773 273.109 17.9167 273.393 17.7955C273.678 17.6742 273.918 17.5 274.115 17.2727C274.312 17.0455 274.452 16.7727 274.536 16.4545H275.876C275.801 16.9697 275.613 17.4337 275.314 17.8466C275.018 18.2557 274.626 18.5814 274.138 18.8239C273.653 19.0625 273.089 19.1818 272.445 19.1818ZM281.632 10.2727V11.4091H277.109V10.2727H281.632ZM278.428 8.18182H279.768V16.5C279.768 16.8788 279.823 17.1629 279.933 17.3523C280.047 17.5379 280.191 17.6629 280.365 17.7273C280.543 17.7879 280.731 17.8182 280.928 17.8182C281.075 17.8182 281.196 17.8106 281.291 17.7955C281.386 17.7765 281.462 17.7614 281.518 17.75L281.791 18.9545C281.7 18.9886 281.573 19.0227 281.411 19.0568C281.248 19.0947 281.041 19.1136 280.791 19.1136C280.412 19.1136 280.041 19.0322 279.678 18.8693C279.318 18.7064 279.018 18.4583 278.78 18.125C278.545 17.7917 278.428 17.3712 278.428 16.8636V8.18182ZM290.354 22.0682C289.195 22.0682 288.17 21.9091 287.28 21.5909C286.39 21.2765 285.642 20.8125 285.036 20.1989C284.429 19.5852 283.971 18.8333 283.661 17.9432C283.35 17.053 283.195 16.0341 283.195 14.8864C283.195 13.7765 283.352 12.7841 283.666 11.9091C283.984 11.0341 284.445 10.2917 285.047 9.68182C285.653 9.06818 286.388 8.60038 287.251 8.27841C288.119 7.95644 289.1 7.79545 290.195 7.79545C291.259 7.79545 292.191 7.9697 292.99 8.31818C293.793 8.66288 294.464 9.13068 295.001 9.72159C295.543 10.3087 295.948 10.9697 296.217 11.7045C296.49 12.4394 296.626 13.197 296.626 13.9773C296.626 14.5265 296.6 15.0833 296.547 15.6477C296.494 16.2121 296.382 16.7311 296.212 17.2045C296.041 17.6742 295.778 18.053 295.422 18.3409C295.07 18.6288 294.592 18.7727 293.99 18.7727C293.725 18.7727 293.433 18.7311 293.115 18.6477C292.797 18.5644 292.515 18.4261 292.268 18.233C292.022 18.0398 291.876 17.7803 291.831 17.4545H291.763C291.672 17.6742 291.532 17.8826 291.342 18.0795C291.157 18.2765 290.912 18.4337 290.609 18.5511C290.31 18.6686 289.945 18.7197 289.513 18.7045C289.02 18.6856 288.587 18.5758 288.212 18.375C287.837 18.1705 287.522 17.8939 287.268 17.5455C287.018 17.1932 286.829 16.786 286.7 16.3239C286.575 15.858 286.513 15.3561 286.513 14.8182C286.513 14.3068 286.589 13.839 286.74 13.4148C286.892 12.9905 287.102 12.6193 287.371 12.3011C287.643 11.983 287.962 11.7292 288.325 11.5398C288.693 11.3466 289.089 11.2273 289.513 11.1818C289.892 11.1439 290.236 11.161 290.547 11.233C290.857 11.3011 291.113 11.4053 291.314 11.5455C291.515 11.6818 291.642 11.8333 291.695 12H291.763V11.3636H292.967V16.5C292.967 16.8182 293.056 17.0985 293.234 17.3409C293.412 17.5833 293.672 17.7045 294.013 17.7045C294.399 17.7045 294.695 17.572 294.899 17.3068C295.107 17.0417 295.25 16.6326 295.325 16.0795C295.405 15.5265 295.445 14.8182 295.445 13.9545C295.445 13.447 295.375 12.947 295.234 12.4545C295.098 11.9583 294.89 11.4943 294.609 11.0625C294.333 10.6307 293.982 10.25 293.558 9.92045C293.134 9.59091 292.636 9.33333 292.064 9.14773C291.496 8.95833 290.85 8.86364 290.126 8.86364C289.236 8.86364 288.439 9.00189 287.734 9.27841C287.034 9.55114 286.437 9.95076 285.945 10.4773C285.456 11 285.083 11.6364 284.825 12.3864C284.571 13.1326 284.445 13.9811 284.445 14.9318C284.445 15.8977 284.571 16.7557 284.825 17.5057C285.083 18.2557 285.462 18.8883 285.962 19.4034C286.465 19.9186 287.089 20.3087 287.831 20.5739C288.573 20.8428 289.429 20.9773 290.399 20.9773C290.816 20.9773 291.227 20.9375 291.632 20.858C292.037 20.7784 292.395 20.6913 292.706 20.5966C293.017 20.5019 293.24 20.4318 293.376 20.3864L293.695 21.4318C293.46 21.5303 293.153 21.6288 292.774 21.7273C292.399 21.8258 291.998 21.9072 291.57 21.9716C291.145 22.036 290.74 22.0682 290.354 22.0682ZM289.695 17.5455C290.202 17.5455 290.613 17.4432 290.928 17.2386C291.242 17.0341 291.471 16.7254 291.615 16.3125C291.759 15.8996 291.831 15.3788 291.831 14.75C291.831 14.1136 291.751 13.6174 291.592 13.2614C291.433 12.9053 291.198 12.6553 290.888 12.5114C290.577 12.3674 290.195 12.2955 289.74 12.2955C289.308 12.2955 288.939 12.4091 288.632 12.6364C288.329 12.8598 288.096 13.1591 287.933 13.5341C287.774 13.9053 287.695 14.3106 287.695 14.75C287.695 15.2348 287.759 15.6913 287.888 16.1193C288.017 16.5436 288.227 16.8883 288.518 17.1534C288.81 17.4148 289.202 17.5455 289.695 17.5455ZM301.929 19.1818C301.202 19.1818 300.56 18.9981 300.003 18.6307C299.446 18.2595 299.01 17.7367 298.696 17.0625C298.382 16.3845 298.224 15.5833 298.224 14.6591C298.224 13.7424 298.382 12.947 298.696 12.2727C299.01 11.5985 299.448 11.0777 300.009 10.7102C300.569 10.3428 301.217 10.1591 301.952 10.1591C302.52 10.1591 302.969 10.2538 303.298 10.4432C303.632 10.6288 303.885 10.8409 304.06 11.0795C304.238 11.3144 304.376 11.5076 304.474 11.6591H304.588V7.36364H305.929V19H304.634V17.6591H304.474C304.376 17.8182 304.236 18.0189 304.054 18.2614C303.872 18.5 303.613 18.714 303.276 18.9034C302.938 19.089 302.49 19.1818 301.929 19.1818ZM302.111 17.9773C302.649 17.9773 303.103 17.8371 303.474 17.5568C303.846 17.2727 304.128 16.8807 304.321 16.3807C304.514 15.8769 304.611 15.2955 304.611 14.6364C304.611 13.9848 304.516 13.4148 304.327 12.9261C304.137 12.4337 303.857 12.0511 303.486 11.7784C303.115 11.5019 302.656 11.3636 302.111 11.3636C301.543 11.3636 301.069 11.5095 300.69 11.8011C300.315 12.089 300.033 12.4811 299.844 12.9773C299.658 13.4697 299.565 14.0227 299.565 14.6364C299.565 15.2576 299.66 15.822 299.849 16.3295C300.043 16.8333 300.327 17.2348 300.702 17.5341C301.08 17.8295 301.55 17.9773 302.111 17.9773ZM312.116 19.1818C311.329 19.1818 310.637 18.9943 310.043 18.6193C309.452 18.2443 308.99 17.7197 308.656 17.0455C308.327 16.3712 308.162 15.5833 308.162 14.6818C308.162 13.7727 308.327 12.9792 308.656 12.3011C308.99 11.6231 309.452 11.0966 310.043 10.7216C310.637 10.3466 311.329 10.1591 312.116 10.1591C312.904 10.1591 313.594 10.3466 314.185 10.7216C314.779 11.0966 315.241 11.6231 315.571 12.3011C315.904 12.9792 316.071 13.7727 316.071 14.6818C316.071 15.5833 315.904 16.3712 315.571 17.0455C315.241 17.7197 314.779 18.2443 314.185 18.6193C313.594 18.9943 312.904 19.1818 312.116 19.1818ZM312.116 17.9773C312.715 17.9773 313.207 17.8239 313.594 17.517C313.98 17.2102 314.266 16.8068 314.452 16.3068C314.637 15.8068 314.73 15.2652 314.73 14.6818C314.73 14.0985 314.637 13.5549 314.452 13.0511C314.266 12.5473 313.98 12.1402 313.594 11.8295C313.207 11.5189 312.715 11.3636 312.116 11.3636C311.518 11.3636 311.026 11.5189 310.639 11.8295C310.253 12.1402 309.967 12.5473 309.781 13.0511C309.596 13.5549 309.503 14.0985 309.503 14.6818C309.503 15.2652 309.596 15.8068 309.781 16.3068C309.967 16.8068 310.253 17.2102 310.639 17.517C311.026 17.8239 311.518 17.9773 312.116 17.9773ZM318.118 19V10.2727H319.413V11.6364H319.527C319.709 11.1705 320.002 10.8087 320.408 10.5511C320.813 10.2898 321.3 10.1591 321.868 10.1591C322.444 10.1591 322.923 10.2898 323.305 10.5511C323.692 10.8087 323.993 11.1705 324.209 11.6364H324.3C324.523 11.1856 324.858 10.8277 325.305 10.5625C325.752 10.2936 326.288 10.1591 326.913 10.1591C327.694 10.1591 328.332 10.4034 328.828 10.892C329.324 11.3769 329.572 12.1326 329.572 13.1591V19H328.232V13.1591C328.232 12.5152 328.055 12.0549 327.703 11.7784C327.351 11.5019 326.936 11.3636 326.459 11.3636C325.845 11.3636 325.37 11.5492 325.033 11.9205C324.696 12.2879 324.527 12.7538 324.527 13.3182V19H323.163V13.0227C323.163 12.5265 323.002 12.1269 322.68 11.8239C322.358 11.517 321.944 11.3636 321.436 11.3636C321.088 11.3636 320.762 11.4564 320.459 11.642C320.16 11.8277 319.917 12.0852 319.732 12.4148C319.55 12.7405 319.459 13.1174 319.459 13.5455V19H318.118ZM334.592 19.2045C334.039 19.2045 333.537 19.1004 333.087 18.892C332.636 18.6799 332.278 18.375 332.013 17.9773C331.748 17.5758 331.615 17.0909 331.615 16.5227C331.615 16.0227 331.714 15.6174 331.911 15.3068C332.107 14.9924 332.371 14.7462 332.7 14.5682C333.03 14.3902 333.393 14.2576 333.791 14.1705C334.193 14.0795 334.596 14.0076 335.001 13.9545C335.532 13.8864 335.962 13.8352 336.291 13.8011C336.625 13.7633 336.867 13.7008 337.018 13.6136C337.174 13.5265 337.251 13.375 337.251 13.1591V13.1136C337.251 12.553 337.098 12.1174 336.791 11.8068C336.488 11.4962 336.028 11.3409 335.411 11.3409C334.77 11.3409 334.268 11.4811 333.905 11.7614C333.541 12.0417 333.286 12.3409 333.138 12.6591L331.865 12.2045C332.092 11.6742 332.395 11.2614 332.774 10.9659C333.157 10.6667 333.573 10.4583 334.024 10.3409C334.479 10.2197 334.926 10.1591 335.365 10.1591C335.645 10.1591 335.967 10.1932 336.331 10.2614C336.698 10.3258 337.053 10.4602 337.393 10.6648C337.738 10.8693 338.024 11.178 338.251 11.5909C338.479 12.0038 338.592 12.5568 338.592 13.25V19H337.251V17.8182H337.183C337.092 18.0076 336.941 18.2102 336.729 18.4261C336.517 18.642 336.234 18.8258 335.882 18.9773C335.53 19.1288 335.1 19.2045 334.592 19.2045ZM334.797 18C335.327 18 335.774 17.8958 336.138 17.6875C336.505 17.4792 336.782 17.2102 336.967 16.8807C337.157 16.5511 337.251 16.2045 337.251 15.8409V14.6136C337.195 14.6818 337.07 14.7443 336.876 14.8011C336.687 14.8542 336.467 14.9015 336.217 14.9432C335.971 14.9811 335.731 15.0152 335.496 15.0455C335.265 15.072 335.077 15.0947 334.933 15.1136C334.585 15.1591 334.259 15.233 333.956 15.3352C333.657 15.4337 333.414 15.5833 333.229 15.7841C333.047 15.9811 332.956 16.25 332.956 16.5909C332.956 17.0568 333.128 17.4091 333.473 17.6477C333.821 17.8826 334.263 18 334.797 18ZM341.04 19V10.2727H342.381V19H341.04ZM341.722 8.81818C341.46 8.81818 341.235 8.72917 341.045 8.55114C340.86 8.37311 340.767 8.15909 340.767 7.90909C340.767 7.65909 340.86 7.44508 341.045 7.26705C341.235 7.08902 341.46 7 341.722 7C341.983 7 342.206 7.08902 342.392 7.26705C342.581 7.44508 342.676 7.65909 342.676 7.90909C342.676 8.15909 342.581 8.37311 342.392 8.55114C342.206 8.72917 341.983 8.81818 341.722 8.81818ZM346.178 13.75V19H344.837V10.2727H346.132V11.6364H346.246C346.45 11.1932 346.761 10.8371 347.178 10.5682C347.594 10.2955 348.132 10.1591 348.791 10.1591C349.382 10.1591 349.899 10.2803 350.342 10.5227C350.786 10.7614 351.13 11.125 351.376 11.6136C351.623 12.0985 351.746 12.7121 351.746 13.4545V19H350.405V13.5455C350.405 12.8598 350.227 12.3258 349.871 11.9432C349.515 11.5568 349.026 11.3636 348.405 11.3636C347.977 11.3636 347.594 11.4564 347.257 11.642C346.924 11.8277 346.661 12.0985 346.467 12.4545C346.274 12.8106 346.178 13.2424 346.178 13.75ZM355.173 19.0909C354.893 19.0909 354.652 18.9905 354.452 18.7898C354.251 18.589 354.151 18.3485 354.151 18.0682C354.151 17.7879 354.251 17.5473 354.452 17.3466C354.652 17.1458 354.893 17.0455 355.173 17.0455C355.454 17.0455 355.694 17.1458 355.895 17.3466C356.096 17.5473 356.196 17.7879 356.196 18.0682C356.196 18.2538 356.149 18.4242 356.054 18.5795C355.963 18.7348 355.84 18.8598 355.685 18.9545C355.533 19.0455 355.363 19.0909 355.173 19.0909ZM362.148 19.1818C361.33 19.1818 360.625 18.9886 360.034 18.6023C359.443 18.2159 358.989 17.6837 358.67 17.0057C358.352 16.3277 358.193 15.553 358.193 14.6818C358.193 13.7955 358.356 13.0133 358.682 12.3352C359.011 11.6534 359.47 11.1212 360.057 10.7386C360.648 10.3523 361.337 10.1591 362.125 10.1591C362.739 10.1591 363.292 10.2727 363.784 10.5C364.277 10.7273 364.68 11.0455 364.994 11.4545C365.309 11.8636 365.504 12.3409 365.58 12.8864H364.239C364.136 12.4886 363.909 12.1364 363.557 11.8295C363.208 11.5189 362.739 11.3636 362.148 11.3636C361.625 11.3636 361.167 11.5 360.773 11.7727C360.383 12.0417 360.078 12.4223 359.858 12.9148C359.642 13.4034 359.534 13.9773 359.534 14.6364C359.534 15.3106 359.64 15.8977 359.852 16.3977C360.068 16.8977 360.371 17.286 360.761 17.5625C361.155 17.839 361.617 17.9773 362.148 17.9773C362.496 17.9773 362.812 17.9167 363.097 17.7955C363.381 17.6742 363.621 17.5 363.818 17.2727C364.015 17.0455 364.155 16.7727 364.239 16.4545H365.58C365.504 16.9697 365.316 17.4337 365.017 17.8466C364.722 18.2557 364.33 18.5814 363.841 18.8239C363.356 19.0625 362.792 19.1818 362.148 19.1818ZM371.085 19.1818C370.297 19.1818 369.606 18.9943 369.011 18.6193C368.42 18.2443 367.958 17.7197 367.625 17.0455C367.295 16.3712 367.131 15.5833 367.131 14.6818C367.131 13.7727 367.295 12.9792 367.625 12.3011C367.958 11.6231 368.42 11.0966 369.011 10.7216C369.606 10.3466 370.297 10.1591 371.085 10.1591C371.873 10.1591 372.563 10.3466 373.153 10.7216C373.748 11.0966 374.21 11.6231 374.54 12.3011C374.873 12.9792 375.04 13.7727 375.04 14.6818C375.04 15.5833 374.873 16.3712 374.54 17.0455C374.21 17.7197 373.748 18.2443 373.153 18.6193C372.563 18.9943 371.873 19.1818 371.085 19.1818ZM371.085 17.9773C371.684 17.9773 372.176 17.8239 372.562 17.517C372.949 17.2102 373.235 16.8068 373.42 16.3068C373.606 15.8068 373.699 15.2652 373.699 14.6818C373.699 14.0985 373.606 13.5549 373.42 13.0511C373.235 12.5473 372.949 12.1402 372.562 11.8295C372.176 11.5189 371.684 11.3636 371.085 11.3636C370.487 11.3636 369.994 11.5189 369.608 11.8295C369.222 12.1402 368.936 12.5473 368.75 13.0511C368.564 13.5549 368.472 14.0985 368.472 14.6818C368.472 15.2652 368.564 15.8068 368.75 16.3068C368.936 16.8068 369.222 17.2102 369.608 17.517C369.994 17.8239 370.487 17.9773 371.085 17.9773ZM377.087 19V10.2727H378.382V11.6364H378.496C378.678 11.1705 378.971 10.8087 379.376 10.5511C379.782 10.2898 380.268 10.1591 380.837 10.1591C381.412 10.1591 381.892 10.2898 382.274 10.5511C382.661 10.8087 382.962 11.1705 383.178 11.6364H383.268C383.492 11.1856 383.827 10.8277 384.274 10.5625C384.721 10.2936 385.257 10.1591 385.882 10.1591C386.662 10.1591 387.301 10.4034 387.797 10.892C388.293 11.3769 388.541 12.1326 388.541 13.1591V19H387.2V13.1591C387.2 12.5152 387.024 12.0549 386.672 11.7784C386.32 11.5019 385.905 11.3636 385.428 11.3636C384.814 11.3636 384.339 11.5492 384.001 11.9205C383.664 12.2879 383.496 12.7538 383.496 13.3182V19H382.132V13.0227C382.132 12.5265 381.971 12.1269 381.649 11.8239C381.327 11.517 380.912 11.3636 380.405 11.3636C380.056 11.3636 379.731 11.4564 379.428 11.642C379.128 11.8277 378.886 12.0852 378.7 12.4148C378.518 12.7405 378.428 13.1174 378.428 13.5455V19H377.087Z" fill="white"/>
</svg>
