<svg width="388" height="60" viewBox="0 0 388 60" fill="none" xmlns="http://www.w3.org/2000/svg">
<circle cx="30" cy="30" r="30" fill="#12372A"/>
<path d="M43.856 41.3428L41.8339 35.6H39.6152L40.8473 41.2H19.1535L20.3856 35.6H18.1668L16.1433 41.3428C15.63 42.8044 16.5397 44 18.1668 44H41.8339C43.4611 44 44.3708 42.8044 43.856 41.3428ZM37.3964 23C37.3964 21.1435 36.6171 19.363 35.2301 18.0503C33.8431 16.7375 31.9619 16 30.0004 16C28.0389 16 26.1577 16.7375 24.7707 18.0503C23.3836 19.363 22.6044 21.1435 22.6044 23C22.6044 29.685 30.0004 37 30.0004 37C30.0004 37 37.3964 29.685 37.3964 23ZM26.0066 23.084C26.007 22.0817 26.4279 21.1206 27.1769 20.412C27.9258 19.7035 28.9414 19.3054 30.0004 19.3054C31.0594 19.3054 32.0751 19.7036 32.8239 20.4123C33.5728 21.1211 33.9935 22.0824 33.9935 23.0847C33.9935 24.087 33.5728 25.0483 32.8239 25.7571C32.0751 26.4658 31.0594 26.864 30.0004 26.864C28.9412 26.864 27.9253 26.4658 27.1763 25.7569C26.4273 25.048 26.0066 24.0865 26.0066 23.084Z" fill="#F1C30C"/>
<path d="M85.35 45H83.055L79.5105 40.0955L78.788 40.971V45H77.02V33.1H78.788V38.2255L83.072 33.1H85.384L80.675 38.7185L85.35 45ZM86.7485 45V32.25H88.5165V45H86.7485ZM97.0471 36.5H98.8151V45H97.0386L96.9706 43.7675C96.7212 44.2038 96.3841 44.5552 95.9591 44.8215C95.5341 45.0878 95.0326 45.221 94.4546 45.221C93.8312 45.221 93.2447 45.1048 92.6951 44.8725C92.1454 44.6345 91.6609 44.3058 91.2416 43.8865C90.8279 43.4672 90.5049 42.9855 90.2726 42.4415C90.0402 41.8918 89.9241 41.3025 89.9241 40.6735C89.9241 40.0672 90.0374 39.4977 90.2641 38.965C90.4907 38.4267 90.8052 37.9563 91.2076 37.554C91.6099 37.1517 92.0746 36.8372 92.6016 36.6105C93.1342 36.3782 93.7037 36.262 94.3101 36.262C94.9277 36.262 95.4717 36.4037 95.9421 36.687C96.4181 36.9647 96.8119 37.3217 97.1236 37.758L97.0471 36.5ZM94.4121 43.5125C94.9107 43.5125 95.3471 43.3907 95.7211 43.147C96.0951 42.8977 96.3841 42.5633 96.5881 42.144C96.7977 41.7247 96.9026 41.26 96.9026 40.75C96.9026 40.2343 96.7977 39.7668 96.5881 39.3475C96.3784 38.9282 96.0866 38.5967 95.7126 38.353C95.3442 38.1037 94.9107 37.979 94.4121 37.979C93.9191 37.979 93.4686 38.1037 93.0606 38.353C92.6526 38.6023 92.3296 38.9367 92.0916 39.356C91.8536 39.7753 91.7346 40.24 91.7346 40.75C91.7346 41.2657 91.8564 41.7332 92.1001 42.1525C92.3494 42.5662 92.6752 42.8977 93.0776 43.147C93.4856 43.3907 93.9304 43.5125 94.4121 43.5125ZM100.511 45V36.5H102.279V37.401C102.574 37.0497 102.937 36.772 103.367 36.568C103.798 36.364 104.263 36.262 104.761 36.262C105.079 36.262 105.393 36.3045 105.705 36.3895L104.999 38.1745C104.778 38.0895 104.557 38.047 104.336 38.047C103.962 38.047 103.619 38.1405 103.308 38.3275C102.996 38.5088 102.747 38.7553 102.56 39.067C102.373 39.3787 102.279 39.7243 102.279 40.104V45H100.511ZM112.902 36.5H114.67V45H112.893L112.825 43.7675C112.576 44.2038 112.239 44.5552 111.814 44.8215C111.389 45.0878 110.887 45.221 110.309 45.221C109.686 45.221 109.099 45.1048 108.55 44.8725C108 44.6345 107.515 44.3058 107.096 43.8865C106.682 43.4672 106.359 42.9855 106.127 42.4415C105.895 41.8918 105.779 41.3025 105.779 40.6735C105.779 40.0672 105.892 39.4977 106.119 38.965C106.345 38.4267 106.66 37.9563 107.062 37.554C107.464 37.1517 107.929 36.8372 108.456 36.6105C108.989 36.3782 109.558 36.262 110.165 36.262C110.782 36.262 111.326 36.4037 111.797 36.687C112.273 36.9647 112.666 37.3217 112.978 37.758L112.902 36.5ZM110.267 43.5125C110.765 43.5125 111.202 43.3907 111.576 43.147C111.95 42.8977 112.239 42.5633 112.443 42.144C112.652 41.7247 112.757 41.26 112.757 40.75C112.757 40.2343 112.652 39.7668 112.443 39.3475C112.233 38.9282 111.941 38.5967 111.567 38.353C111.199 38.1037 110.765 37.979 110.267 37.979C109.774 37.979 109.323 38.1037 108.915 38.353C108.507 38.6023 108.184 38.9367 107.946 39.356C107.708 39.7753 107.589 40.24 107.589 40.75C107.589 41.2657 107.711 41.7332 107.955 42.1525C108.204 42.5662 108.53 42.8977 108.932 43.147C109.34 43.3907 109.785 43.5125 110.267 43.5125ZM120.852 36.262C121.679 36.262 122.43 36.4632 123.105 36.8655C123.785 37.2678 124.326 37.809 124.728 38.489C125.13 39.1633 125.332 39.9142 125.332 40.7415C125.332 41.3592 125.215 41.94 124.983 42.484C124.751 43.0223 124.428 43.4983 124.014 43.912C123.606 44.32 123.13 44.6402 122.586 44.8725C122.048 45.1048 121.47 45.221 120.852 45.221C120.257 45.221 119.736 45.085 119.288 44.813C118.846 44.5353 118.483 44.1812 118.2 43.7505V45H116.432V32.25H118.2V37.7325C118.483 37.2962 118.846 36.942 119.288 36.67C119.736 36.398 120.257 36.262 120.852 36.262ZM120.835 43.504C121.328 43.504 121.779 43.3793 122.187 43.13C122.595 42.8807 122.918 42.5463 123.156 42.127C123.399 41.7077 123.521 41.2458 123.521 40.7415C123.521 40.2258 123.399 39.7583 123.156 39.339C122.912 38.9197 122.586 38.5882 122.178 38.3445C121.77 38.0952 121.322 37.9705 120.835 37.9705C120.342 37.9705 119.909 38.0952 119.535 38.3445C119.161 38.5938 118.869 38.9282 118.659 39.3475C118.449 39.7668 118.345 40.2315 118.345 40.7415C118.345 41.2515 118.449 41.7162 118.659 42.1355C118.869 42.5548 119.161 42.8892 119.535 43.1385C119.909 43.3822 120.342 43.504 120.835 43.504ZM130.432 45.221C129.65 45.221 128.936 45.0198 128.29 44.6175C127.65 44.2152 127.137 43.6768 126.751 43.0025C126.372 42.3225 126.182 41.5717 126.182 40.75C126.182 40.1267 126.292 39.5458 126.513 39.0075C126.734 38.4635 127.038 37.9875 127.423 37.5795C127.814 37.1658 128.267 36.8428 128.783 36.6105C129.299 36.3782 129.848 36.262 130.432 36.262C131.084 36.262 131.681 36.398 132.225 36.67C132.769 36.9363 133.234 37.3075 133.619 37.7835C134.005 38.2538 134.288 38.7978 134.469 39.4155C134.651 40.0275 134.705 40.6792 134.631 41.3705H128.077C128.151 41.7615 128.293 42.1157 128.502 42.433C128.718 42.7447 128.99 42.9912 129.318 43.1725C129.653 43.3538 130.024 43.4473 130.432 43.453C130.863 43.453 131.254 43.3453 131.605 43.13C131.962 42.9147 132.254 42.6172 132.48 42.2375L134.274 42.654C133.934 43.4077 133.421 44.0253 132.735 44.507C132.05 44.983 131.282 45.221 130.432 45.221ZM128.018 40.019H132.846C132.789 39.611 132.645 39.2427 132.412 38.914C132.186 38.5797 131.9 38.3162 131.554 38.1235C131.214 37.9252 130.84 37.826 130.432 37.826C130.03 37.826 129.656 37.9223 129.31 38.115C128.97 38.3077 128.687 38.5712 128.46 38.9055C128.239 39.2342 128.092 39.6053 128.018 40.019ZM136.039 45V36.5H137.807V37.401C138.101 37.0497 138.464 36.772 138.895 36.568C139.325 36.364 139.79 36.262 140.289 36.262C140.606 36.262 140.92 36.3045 141.232 36.3895L140.527 38.1745C140.306 38.0895 140.085 38.047 139.864 38.047C139.49 38.047 139.147 38.1405 138.835 38.3275C138.523 38.5088 138.274 38.7553 138.087 39.067C137.9 39.3787 137.807 39.7243 137.807 40.104V45H136.039ZM148.284 36.5H150.052V45.221C150.052 45.8047 149.928 46.343 149.678 46.836C149.435 47.329 149.103 47.754 148.684 48.111C148.265 48.4737 147.783 48.7542 147.239 48.9525C146.701 49.1508 146.137 49.25 145.547 49.25C144.952 49.25 144.38 49.1225 143.83 48.8675C143.281 48.6182 142.796 48.2782 142.377 47.8475C141.963 47.4168 141.654 46.9295 141.45 46.3855L143.074 45.6545C143.187 46.0058 143.369 46.3175 143.618 46.5895C143.873 46.8615 144.168 47.0768 144.502 47.2355C144.842 47.3942 145.19 47.4735 145.547 47.4735C145.899 47.4735 146.236 47.4168 146.559 47.3035C146.888 47.1958 147.179 47.0428 147.434 46.8445C147.695 46.6462 147.902 46.4082 148.055 46.1305C148.208 45.8528 148.284 45.5497 148.284 45.221V43.7845C148.007 44.2152 147.65 44.5637 147.213 44.83C146.777 45.0907 146.27 45.221 145.692 45.221C145.091 45.221 144.525 45.1048 143.992 44.8725C143.459 44.6402 142.992 44.32 142.589 43.912C142.187 43.4983 141.873 43.0223 141.646 42.484C141.419 41.9457 141.306 41.3677 141.306 40.75C141.306 40.1323 141.419 39.5543 141.646 39.016C141.873 38.472 142.187 37.996 142.589 37.588C142.992 37.1743 143.459 36.8513 143.992 36.619C144.525 36.3867 145.091 36.2705 145.692 36.2705C146.27 36.2705 146.777 36.4037 147.213 36.67C147.65 36.9307 148.007 37.2792 148.284 37.7155V36.5ZM145.709 43.5125C146.202 43.5125 146.633 43.3878 147.001 43.1385C147.369 42.8835 147.655 42.5463 147.859 42.127C148.063 41.7077 148.165 41.2487 148.165 40.75C148.165 40.24 148.061 39.7782 147.851 39.3645C147.647 38.9452 147.361 38.6108 146.992 38.3615C146.624 38.1065 146.196 37.979 145.709 37.979C145.233 37.979 144.797 38.1037 144.4 38.353C144.009 38.6023 143.697 38.9367 143.465 39.356C143.233 39.7753 143.116 40.24 143.116 40.75C143.116 41.26 143.233 41.7247 143.465 42.144C143.703 42.5633 144.017 42.8977 144.408 43.147C144.805 43.3907 145.239 43.5125 145.709 43.5125ZM154.642 45.1615C154.195 45.1332 153.758 45.0425 153.333 44.8895C152.908 44.7365 152.534 44.5297 152.211 44.269C151.894 44.0027 151.656 43.691 151.497 43.334L153.002 42.688C153.075 42.841 153.203 42.9912 153.384 43.1385C153.571 43.2858 153.789 43.4077 154.039 43.504C154.288 43.5947 154.549 43.64 154.821 43.64C155.087 43.64 155.334 43.6032 155.56 43.5295C155.793 43.4502 155.982 43.3312 156.13 43.1725C156.277 43.0138 156.351 42.824 156.351 42.603C156.351 42.3537 156.266 42.161 156.096 42.025C155.931 41.8833 155.725 41.7757 155.475 41.702C155.226 41.6283 154.977 41.5575 154.727 41.4895C154.172 41.3648 153.662 41.1948 153.197 40.9795C152.738 40.7585 152.373 40.478 152.101 40.138C151.829 39.7923 151.693 39.3702 151.693 38.8715C151.693 38.3275 151.84 37.8572 152.135 37.4605C152.429 37.0582 152.815 36.7493 153.291 36.534C153.772 36.3187 154.285 36.211 154.829 36.211C155.509 36.211 156.133 36.3555 156.699 36.6445C157.266 36.9335 157.699 37.3302 158 37.8345L156.597 38.6675C156.512 38.4975 156.385 38.3445 156.215 38.2085C156.045 38.0725 155.852 37.9648 155.637 37.8855C155.421 37.8005 155.198 37.7523 154.965 37.741C154.676 37.7297 154.407 37.7637 154.158 37.843C153.914 37.9167 153.719 38.0357 153.571 38.2C153.424 38.3643 153.35 38.574 153.35 38.829C153.35 39.0783 153.438 39.2653 153.614 39.39C153.789 39.509 154.01 39.6053 154.277 39.679C154.549 39.7527 154.826 39.8348 155.11 39.9255C155.614 40.0842 156.087 40.2797 156.529 40.512C156.971 40.7387 157.328 41.0192 157.6 41.3535C157.872 41.6878 158.003 42.0958 157.991 42.5775C157.991 43.1102 157.83 43.5777 157.507 43.98C157.189 44.3823 156.776 44.6883 156.266 44.898C155.756 45.1077 155.215 45.1955 154.642 45.1615ZM164.043 45H161.774L158.671 36.483H160.558L162.904 42.96L165.259 36.483H167.137L164.043 45ZM168.445 36.5H170.213V45H168.445V36.5ZM169.346 35.2675C169.074 35.2675 168.847 35.1797 168.666 35.004C168.484 34.8283 168.394 34.6073 168.394 34.341C168.394 34.0803 168.484 33.8622 168.666 33.6865C168.847 33.5052 169.071 33.4145 169.337 33.4145C169.598 33.4145 169.819 33.5052 170 33.6865C170.182 33.8622 170.272 34.0803 170.272 34.341C170.272 34.6073 170.182 34.8283 170 35.004C169.825 35.1797 169.606 35.2675 169.346 35.2675ZM178.71 36.5H180.478V45H178.702L178.634 43.7675C178.384 44.2038 178.047 44.5552 177.622 44.8215C177.197 45.0878 176.696 45.221 176.118 45.221C175.494 45.221 174.908 45.1048 174.358 44.8725C173.808 44.6345 173.324 44.3058 172.905 43.8865C172.491 43.4672 172.168 42.9855 171.936 42.4415C171.703 41.8918 171.587 41.3025 171.587 40.6735C171.587 40.0672 171.7 39.4977 171.927 38.965C172.154 38.4267 172.468 37.9563 172.871 37.554C173.273 37.1517 173.738 36.8372 174.265 36.6105C174.797 36.3782 175.367 36.262 175.973 36.262C176.591 36.262 177.135 36.4037 177.605 36.687C178.081 36.9647 178.475 37.3217 178.787 37.758L178.71 36.5ZM176.075 43.5125C176.574 43.5125 177.01 43.3907 177.384 43.147C177.758 42.8977 178.047 42.5633 178.251 42.144C178.461 41.7247 178.566 41.26 178.566 40.75C178.566 40.2343 178.461 39.7668 178.251 39.3475C178.041 38.9282 177.75 38.5967 177.376 38.353C177.007 38.1037 176.574 37.979 176.075 37.979C175.582 37.979 175.132 38.1037 174.724 38.353C174.316 38.6023 173.993 38.9367 173.755 39.356C173.517 39.7753 173.398 40.24 173.398 40.75C173.398 41.2657 173.519 41.7332 173.763 42.1525C174.012 42.5662 174.338 42.8977 174.741 43.147C175.149 43.3907 175.593 43.5125 176.075 43.5125ZM188.63 32.25H190.398V45H188.63V43.7505C188.352 44.1925 187.989 44.5495 187.542 44.8215C187.094 45.0878 186.57 45.221 185.969 45.221C185.352 45.221 184.774 45.1048 184.235 44.8725C183.697 44.6402 183.221 44.32 182.807 43.912C182.399 43.4983 182.079 43.0223 181.847 42.484C181.614 41.9457 181.498 41.3677 181.498 40.75C181.498 40.1323 181.614 39.5543 181.847 39.016C182.079 38.472 182.399 37.996 182.807 37.588C183.221 37.1743 183.697 36.8513 184.235 36.619C184.774 36.3867 185.352 36.2705 185.969 36.2705C186.57 36.2705 187.094 36.4065 187.542 36.6785C187.989 36.9448 188.352 37.2962 188.63 37.7325V32.25ZM185.986 43.5125C186.485 43.5125 186.921 43.3907 187.295 43.147C187.669 42.8977 187.958 42.5633 188.162 42.144C188.372 41.7247 188.477 41.26 188.477 40.75C188.477 40.2343 188.372 39.7668 188.162 39.3475C187.953 38.9282 187.661 38.5967 187.287 38.353C186.918 38.1037 186.485 37.979 185.986 37.979C185.493 37.979 185.043 38.1037 184.635 38.353C184.232 38.6023 183.909 38.9367 183.666 39.356C183.428 39.7753 183.309 40.24 183.309 40.75C183.309 41.2657 183.431 41.7332 183.674 42.1525C183.924 42.5662 184.249 42.8977 184.652 43.147C185.06 43.3907 185.505 43.5125 185.986 43.5125ZM192.094 41.8125V36.5H193.862V41.379C193.862 41.7587 193.956 42.1043 194.143 42.416C194.33 42.7277 194.579 42.977 194.891 43.164C195.202 43.3453 195.545 43.436 195.919 43.436C196.299 43.436 196.642 43.3453 196.948 43.164C197.259 42.977 197.506 42.7277 197.687 42.416C197.874 42.1043 197.968 41.7587 197.968 41.379V36.5H199.736L199.744 45H197.976L197.968 44.082C197.679 44.4333 197.319 44.711 196.888 44.915C196.457 45.119 195.996 45.221 195.503 45.221C194.874 45.221 194.301 45.068 193.786 44.762C193.27 44.456 192.859 44.0452 192.553 43.5295C192.247 43.0138 192.094 42.4415 192.094 41.8125ZM208.783 45H206.743L204.652 41.396L203.283 43.028V45H201.515V32.25H203.283V40.2825L206.445 36.5H208.757L205.859 39.9595L208.783 45ZM214.736 38.268H212.951L212.942 45H211.174L211.183 38.268H209.831V36.5H211.183L211.174 33.831H212.942L212.951 36.5H214.736V38.268ZM219.798 45.221C219.016 45.221 218.302 45.0198 217.656 44.6175C217.016 44.2152 216.503 43.6768 216.118 43.0025C215.738 42.3225 215.548 41.5717 215.548 40.75C215.548 40.1267 215.659 39.5458 215.88 39.0075C216.101 38.4635 216.404 37.9875 216.789 37.5795C217.18 37.1658 217.633 36.8428 218.149 36.6105C218.665 36.3782 219.214 36.262 219.798 36.262C220.45 36.262 221.048 36.398 221.592 36.67C222.136 36.9363 222.6 37.3075 222.986 37.7835C223.371 38.2538 223.654 38.7978 223.836 39.4155C224.017 40.0275 224.071 40.6792 223.997 41.3705H217.444C217.517 41.7615 217.659 42.1157 217.869 42.433C218.084 42.7447 218.356 42.9912 218.685 43.1725C219.019 43.3538 219.39 43.4473 219.798 43.453C220.229 43.453 220.62 43.3453 220.971 43.13C221.328 42.9147 221.62 42.6172 221.847 42.2375L223.64 42.654C223.3 43.4077 222.787 44.0253 222.102 44.507C221.416 44.983 220.648 45.221 219.798 45.221ZM217.384 40.019H222.212C222.155 39.611 222.011 39.2427 221.779 38.914C221.552 38.5797 221.266 38.3162 220.92 38.1235C220.58 37.9252 220.206 37.826 219.798 37.826C219.396 37.826 219.022 37.9223 218.676 38.115C218.336 38.3077 218.053 38.5712 217.826 38.9055C217.605 39.2342 217.458 39.6053 217.384 40.019ZM233.055 39.6705V45H231.287V40.104C231.287 39.7243 231.193 39.3787 231.006 39.067C230.825 38.7553 230.578 38.5088 230.267 38.3275C229.961 38.1405 229.615 38.047 229.23 38.047C228.856 38.047 228.513 38.1405 228.201 38.3275C227.89 38.5088 227.64 38.7553 227.453 39.067C227.266 39.3787 227.173 39.7243 227.173 40.104V45H225.405V36.5H227.173V37.401C227.467 37.0497 227.83 36.772 228.261 36.568C228.691 36.364 229.156 36.262 229.655 36.262C230.284 36.262 230.856 36.415 231.372 36.721C231.887 37.027 232.295 37.4378 232.596 37.9535C232.902 38.4692 233.055 39.0415 233.055 39.6705ZM240.459 45L242.864 40.835C242.292 40.9427 241.734 40.92 241.19 40.767C240.652 40.6083 240.167 40.3505 239.736 39.9935C239.306 39.6308 238.963 39.1917 238.708 38.676C238.453 38.1603 238.325 37.5937 238.325 36.976C238.325 36.415 238.43 35.888 238.64 35.395C238.855 34.8963 239.15 34.46 239.524 34.086C239.898 33.7063 240.331 33.4117 240.824 33.202C241.323 32.9867 241.856 32.879 242.422 32.879C243.165 32.879 243.845 33.0632 244.462 33.4315C245.08 33.7998 245.573 34.2957 245.941 34.919C246.31 35.5367 246.494 36.2223 246.494 36.976C246.494 37.367 246.446 37.724 246.349 38.047C246.259 38.37 246.114 38.71 245.916 39.067L242.507 45H240.459ZM242.405 39.2965C242.859 39.2965 243.261 39.1888 243.612 38.9735C243.964 38.7525 244.239 38.4663 244.437 38.115C244.641 37.758 244.743 37.3755 244.743 36.9675C244.743 36.5255 244.635 36.1288 244.42 35.7775C244.205 35.4262 243.918 35.1485 243.561 34.9445C243.21 34.7405 242.83 34.6385 242.422 34.6385C241.969 34.6385 241.567 34.749 241.215 34.97C240.864 35.191 240.586 35.48 240.382 35.837C240.178 36.1883 240.076 36.5652 240.076 36.9675C240.076 37.3925 240.178 37.7835 240.382 38.1405C240.592 38.4918 240.873 38.7723 241.224 38.982C241.575 39.1917 241.969 39.2965 242.405 39.2965ZM252.122 45.221C251.419 45.221 250.784 45.0623 250.218 44.745C249.657 44.422 249.172 43.9772 248.764 43.4105C248.356 42.8438 248.044 42.1893 247.829 41.447C247.614 40.699 247.506 39.9 247.506 39.05C247.506 38.2 247.614 37.401 247.829 36.653C248.044 35.905 248.356 35.2505 248.764 34.6895C249.172 34.1228 249.657 33.6808 250.218 33.3635C250.784 33.0405 251.419 32.879 252.122 32.879C252.813 32.879 253.442 33.0405 254.009 33.3635C254.575 33.6808 255.057 34.1228 255.454 34.6895C255.856 35.2505 256.165 35.905 256.38 36.653C256.595 37.401 256.703 38.2 256.703 39.05C256.703 39.9 256.595 40.699 256.38 41.447C256.165 42.1893 255.856 42.8438 255.454 43.4105C255.057 43.9772 254.575 44.422 254.009 44.745C253.442 45.0623 252.813 45.221 252.122 45.221ZM252.122 43.453C252.773 43.453 253.314 43.249 253.745 42.841C254.181 42.4273 254.507 41.8862 254.723 41.2175C254.938 40.5488 255.046 39.8263 255.046 39.05C255.046 38.234 254.932 37.4945 254.706 36.8315C254.485 36.1628 254.156 35.633 253.72 35.242C253.289 34.8453 252.756 34.647 252.122 34.647C251.617 34.647 251.178 34.766 250.804 35.004C250.436 35.242 250.13 35.5678 249.886 35.9815C249.648 36.3952 249.467 36.8655 249.342 37.3925C249.223 37.9195 249.164 38.472 249.164 39.05C249.164 39.8263 249.274 40.5488 249.495 41.2175C249.716 41.8862 250.045 42.4273 250.481 42.841C250.923 43.249 251.47 43.453 252.122 43.453ZM257.886 45.952L258.413 43.079H260.181L259.059 45.952H257.886ZM270.553 45.221C269.901 45.221 269.275 45.119 268.674 44.915C268.073 44.711 267.549 44.4192 267.102 44.0395C266.654 43.6542 266.334 43.198 266.141 42.671L267.799 42.0505C267.895 42.3225 268.079 42.5662 268.351 42.7815C268.629 42.9912 268.957 43.1555 269.337 43.2745C269.722 43.3935 270.128 43.453 270.553 43.453C271.006 43.453 271.431 43.3793 271.828 43.232C272.23 43.0847 272.553 42.8807 272.797 42.62C273.046 42.3593 273.171 42.0533 273.171 41.702C273.171 41.3393 273.04 41.0418 272.78 40.8095C272.525 40.5772 272.196 40.393 271.794 40.257C271.397 40.121 270.983 40.019 270.553 39.951C269.72 39.815 268.972 39.6167 268.309 39.356C267.651 39.0953 267.13 38.7298 266.745 38.2595C266.365 37.7892 266.175 37.1772 266.175 36.4235C266.175 35.7152 266.376 35.0975 266.779 34.5705C267.187 34.0435 267.722 33.6355 268.385 33.3465C269.054 33.0518 269.776 32.9045 270.553 32.9045C271.193 32.9045 271.811 33.0065 272.406 33.2105C273.006 33.4088 273.533 33.7007 273.987 34.086C274.446 34.4657 274.774 34.9275 274.973 35.4715L273.298 36.075C273.202 35.7973 273.018 35.5565 272.746 35.3525C272.474 35.1428 272.145 34.9785 271.76 34.8595C271.38 34.7405 270.978 34.681 270.553 34.681C270.099 34.6753 269.674 34.749 269.278 34.902C268.887 35.0493 268.566 35.2533 268.317 35.514C268.068 35.7747 267.943 36.0778 267.943 36.4235C267.943 36.8485 268.059 37.1715 268.292 37.3925C268.524 37.6135 268.836 37.7778 269.227 37.8855C269.623 37.9875 270.065 38.081 270.553 38.166C271.335 38.2907 272.057 38.4975 272.72 38.7865C273.389 39.0755 273.924 39.4608 274.327 39.9425C274.735 40.4185 274.939 41.005 274.939 41.702C274.939 42.4047 274.735 43.0223 274.327 43.555C273.924 44.082 273.389 44.4928 272.72 44.7875C272.057 45.0765 271.335 45.221 270.553 45.221ZM281.175 38.268H279.39L279.381 45H277.613L277.622 38.268H276.27V36.5H277.622L277.613 33.831H279.381L279.39 36.5H281.175V38.268ZM286.238 45.221C285.456 45.221 284.742 45.0198 284.096 44.6175C283.455 44.2152 282.942 43.6768 282.557 43.0025C282.177 42.3225 281.988 41.5717 281.988 40.75C281.988 40.1267 282.098 39.5458 282.319 39.0075C282.54 38.4635 282.843 37.9875 283.229 37.5795C283.62 37.1658 284.073 36.8428 284.589 36.6105C285.104 36.3782 285.654 36.262 286.238 36.262C287.02 36.262 287.731 36.4632 288.371 36.8655C289.017 37.2678 289.53 37.809 289.91 38.489C290.295 39.169 290.488 39.9227 290.488 40.75C290.488 41.3677 290.377 41.9457 290.156 42.484C289.935 43.0223 289.629 43.4983 289.238 43.912C288.853 44.32 288.402 44.6402 287.887 44.8725C287.377 45.1048 286.827 45.221 286.238 45.221ZM286.238 43.453C286.708 43.453 287.13 43.3283 287.504 43.079C287.878 42.8297 288.173 42.501 288.388 42.093C288.609 41.6793 288.72 41.2317 288.72 40.75C288.72 40.257 288.606 39.8037 288.38 39.39C288.159 38.9763 287.861 38.6477 287.487 38.404C287.113 38.1547 286.697 38.03 286.238 38.03C285.773 38.03 285.351 38.1547 284.971 38.404C284.597 38.6533 284.3 38.9848 284.079 39.3985C283.863 39.8122 283.756 40.2627 283.756 40.75C283.756 41.2543 283.869 41.7105 284.096 42.1185C284.322 42.5265 284.623 42.8523 284.997 43.096C285.376 43.334 285.79 43.453 286.238 43.453ZM297.395 42.586L298.976 43.4445C298.59 43.9828 298.1 44.4135 297.505 44.7365C296.916 45.0595 296.276 45.221 295.584 45.221C294.802 45.221 294.088 45.0198 293.442 44.6175C292.802 44.2152 292.289 43.6768 291.904 43.0025C291.524 42.3225 291.334 41.5717 291.334 40.75C291.334 40.1267 291.445 39.5458 291.666 39.0075C291.887 38.4635 292.19 37.9875 292.575 37.5795C292.966 37.1658 293.42 36.8428 293.935 36.6105C294.451 36.3782 295.001 36.262 295.584 36.262C296.276 36.262 296.916 36.4235 297.505 36.7465C298.1 37.0695 298.59 37.503 298.976 38.047L297.395 38.9055C297.157 38.6222 296.879 38.4068 296.562 38.2595C296.244 38.1065 295.919 38.03 295.584 38.03C295.12 38.03 294.697 38.1575 294.318 38.4125C293.944 38.6618 293.646 38.9933 293.425 39.407C293.21 39.815 293.102 40.2627 293.102 40.75C293.102 41.2317 293.213 41.6793 293.434 42.093C293.655 42.501 293.952 42.8297 294.326 43.079C294.706 43.3283 295.125 43.453 295.584 43.453C295.936 43.453 296.27 43.3737 296.587 43.215C296.905 43.0563 297.174 42.8467 297.395 42.586ZM307.562 45H305.522L303.431 41.396L302.062 43.028V45H300.294V32.25H302.062V40.2825L305.224 36.5H307.536L304.638 39.9595L307.562 45ZM316.776 39.6705V45H315.008V40.104C315.008 39.7243 314.915 39.3787 314.728 39.067C314.547 38.7553 314.3 38.5088 313.988 38.3275C313.682 38.1405 313.337 38.047 312.951 38.047C312.577 38.047 312.235 38.1405 311.923 38.3275C311.611 38.5088 311.362 38.7553 311.175 39.067C310.988 39.3787 310.894 39.7243 310.894 40.104V45H309.126V32.25H310.894V37.401C311.189 37.0497 311.552 36.772 311.982 36.568C312.413 36.364 312.878 36.262 313.376 36.262C314.005 36.262 314.578 36.415 315.093 36.721C315.609 37.027 316.017 37.4378 316.317 37.9535C316.623 38.4692 316.776 39.0415 316.776 39.6705ZM322.047 45.221C321.265 45.221 320.551 45.0198 319.905 44.6175C319.265 44.2152 318.752 43.6768 318.367 43.0025C317.987 42.3225 317.797 41.5717 317.797 40.75C317.797 40.1267 317.908 39.5458 318.129 39.0075C318.35 38.4635 318.653 37.9875 319.038 37.5795C319.429 37.1658 319.882 36.8428 320.398 36.6105C320.914 36.3782 321.463 36.262 322.047 36.262C322.829 36.262 323.54 36.4632 324.181 36.8655C324.827 37.2678 325.339 37.809 325.719 38.489C326.104 39.169 326.297 39.9227 326.297 40.75C326.297 41.3677 326.187 41.9457 325.966 42.484C325.745 43.0223 325.439 43.4983 325.048 43.912C324.662 44.32 324.212 44.6402 323.696 44.8725C323.186 45.1048 322.636 45.221 322.047 45.221ZM322.047 43.453C322.517 43.453 322.94 43.3283 323.314 43.079C323.688 42.8297 323.982 42.501 324.198 42.093C324.419 41.6793 324.529 41.2317 324.529 40.75C324.529 40.257 324.416 39.8037 324.189 39.39C323.968 38.9763 323.671 38.6477 323.297 38.404C322.923 38.1547 322.506 38.03 322.047 38.03C321.582 38.03 321.16 38.1547 320.781 38.404C320.407 38.6533 320.109 38.9848 319.888 39.3985C319.673 39.8122 319.565 40.2627 319.565 40.75C319.565 41.2543 319.678 41.7105 319.905 42.1185C320.132 42.5265 320.432 42.8523 320.806 43.096C321.186 43.334 321.599 43.453 322.047 43.453ZM327.554 45V32.25H329.322V45H327.554ZM331.356 45V36.5H333.124V37.401C333.419 37.0497 333.778 36.772 334.203 36.568C334.634 36.364 335.099 36.262 335.597 36.262C336.204 36.262 336.762 36.4093 337.272 36.704C337.782 36.993 338.187 37.3783 338.487 37.86C338.788 37.3783 339.187 36.993 339.686 36.704C340.19 36.4093 340.746 36.262 341.352 36.262C341.981 36.262 342.553 36.415 343.069 36.721C343.585 37.027 343.995 37.4378 344.301 37.9535C344.607 38.4692 344.76 39.0415 344.76 39.6705V45H342.992V40.121C342.992 39.747 342.902 39.4042 342.72 39.0925C342.539 38.7808 342.295 38.5287 341.989 38.336C341.683 38.1433 341.343 38.047 340.969 38.047C340.595 38.047 340.255 38.1377 339.949 38.319C339.643 38.5003 339.4 38.7468 339.218 39.0585C339.037 39.3702 338.946 39.7243 338.946 40.121V45H337.178V40.121C337.178 39.7243 337.088 39.3702 336.906 39.0585C336.725 38.7468 336.479 38.5003 336.167 38.319C335.861 38.1377 335.521 38.047 335.147 38.047C334.779 38.047 334.439 38.1433 334.127 38.336C333.821 38.5287 333.577 38.7808 333.396 39.0925C333.215 39.4042 333.124 39.747 333.124 40.121V45H331.356Z" fill="#12372A"/>
<path d="M77.44 21V4.2H79.936V18.504H87.172V21H77.44ZM94.0169 21.312C92.9129 21.312 91.9049 21.028 90.9929 20.46C90.0889 19.892 89.3649 19.132 88.8209 18.18C88.2849 17.22 88.0169 16.16 88.0169 15C88.0169 14.12 88.1729 13.3 88.4849 12.54C88.7969 11.772 89.2249 11.1 89.7689 10.524C90.3209 9.94 90.9609 9.484 91.6889 9.156C92.4169 8.828 93.1929 8.664 94.0169 8.664C95.1209 8.664 96.1249 8.948 97.0289 9.516C97.9409 10.084 98.6649 10.848 99.2009 11.808C99.7449 12.768 100.017 13.832 100.017 15C100.017 15.872 99.8609 16.688 99.5489 17.448C99.2369 18.208 98.8049 18.88 98.2529 19.464C97.7089 20.04 97.0729 20.492 96.3449 20.82C95.6249 21.148 94.8489 21.312 94.0169 21.312ZM94.0169 18.816C94.6809 18.816 95.2769 18.64 95.8049 18.288C96.3329 17.936 96.7489 17.472 97.0529 16.896C97.3649 16.312 97.5209 15.68 97.5209 15C97.5209 14.304 97.3609 13.664 97.0409 13.08C96.7289 12.496 96.3089 12.032 95.7809 11.688C95.2529 11.336 94.6649 11.16 94.0169 11.16C93.3609 11.16 92.7649 11.336 92.2289 11.688C91.7009 12.04 91.2809 12.508 90.9689 13.092C90.6649 13.676 90.5129 14.312 90.5129 15C90.5129 15.712 90.6729 16.356 90.9929 16.932C91.3129 17.508 91.7369 17.968 92.2649 18.312C92.8009 18.648 93.3849 18.816 94.0169 18.816ZM109.768 17.592L112 18.804C111.456 19.564 110.764 20.172 109.924 20.628C109.092 21.084 108.188 21.312 107.212 21.312C106.108 21.312 105.1 21.028 104.188 20.46C103.284 19.892 102.56 19.132 102.016 18.18C101.48 17.22 101.212 16.16 101.212 15C101.212 14.12 101.368 13.3 101.68 12.54C101.992 11.772 102.42 11.1 102.964 10.524C103.516 9.94 104.156 9.484 104.884 9.156C105.612 8.828 106.388 8.664 107.212 8.664C108.188 8.664 109.092 8.892 109.924 9.348C110.764 9.804 111.456 10.416 112 11.184L109.768 12.396C109.432 11.996 109.04 11.692 108.592 11.484C108.144 11.268 107.684 11.16 107.212 11.16C106.556 11.16 105.96 11.34 105.424 11.7C104.896 12.052 104.476 12.52 104.164 13.104C103.86 13.68 103.708 14.312 103.708 15C103.708 15.68 103.864 16.312 104.176 16.896C104.488 17.472 104.908 17.936 105.436 18.288C105.972 18.64 106.564 18.816 107.212 18.816C107.708 18.816 108.18 18.704 108.628 18.48C109.076 18.256 109.456 17.96 109.768 17.592ZM123.198 9H125.694V21H123.186L123.09 19.26C122.738 19.876 122.262 20.372 121.662 20.748C121.062 21.124 120.354 21.312 119.538 21.312C118.658 21.312 117.83 21.148 117.054 20.82C116.278 20.484 115.594 20.02 115.002 19.428C114.418 18.836 113.962 18.156 113.634 17.388C113.306 16.612 113.142 15.78 113.142 14.892C113.142 14.036 113.302 13.232 113.622 12.48C113.942 11.72 114.386 11.056 114.954 10.488C115.522 9.92 116.178 9.476 116.922 9.156C117.674 8.828 118.478 8.664 119.334 8.664C120.206 8.664 120.974 8.864 121.638 9.264C122.31 9.656 122.866 10.16 123.306 10.776L123.198 9ZM119.478 18.9C120.182 18.9 120.798 18.728 121.326 18.384C121.854 18.032 122.262 17.56 122.55 16.968C122.846 16.376 122.994 15.72 122.994 15C122.994 14.272 122.846 13.612 122.55 13.02C122.254 12.428 121.842 11.96 121.314 11.616C120.794 11.264 120.182 11.088 119.478 11.088C118.782 11.088 118.146 11.264 117.57 11.616C116.994 11.968 116.538 12.44 116.202 13.032C115.866 13.624 115.698 14.28 115.698 15C115.698 15.728 115.87 16.388 116.214 16.98C116.566 17.564 117.026 18.032 117.594 18.384C118.17 18.728 118.798 18.9 119.478 18.9ZM134.424 11.496H131.904L131.892 21H129.396L129.408 11.496H127.5V9H129.408L129.396 5.232H131.892L131.904 9H134.424V11.496ZM136.409 9H138.905V21H136.409V9ZM137.681 7.26C137.297 7.26 136.977 7.136 136.721 6.888C136.465 6.64 136.337 6.328 136.337 5.952C136.337 5.584 136.465 5.276 136.721 5.028C136.977 4.772 137.293 4.644 137.669 4.644C138.037 4.644 138.349 4.772 138.605 5.028C138.861 5.276 138.989 5.584 138.989 5.952C138.989 6.328 138.861 6.64 138.605 6.888C138.357 7.136 138.049 7.26 137.681 7.26ZM146.845 21.312C145.741 21.312 144.733 21.028 143.821 20.46C142.917 19.892 142.193 19.132 141.649 18.18C141.113 17.22 140.845 16.16 140.845 15C140.845 14.12 141.001 13.3 141.313 12.54C141.625 11.772 142.053 11.1 142.597 10.524C143.149 9.94 143.789 9.484 144.517 9.156C145.245 8.828 146.021 8.664 146.845 8.664C147.949 8.664 148.953 8.948 149.857 9.516C150.769 10.084 151.493 10.848 152.029 11.808C152.573 12.768 152.845 13.832 152.845 15C152.845 15.872 152.689 16.688 152.377 17.448C152.065 18.208 151.633 18.88 151.081 19.464C150.537 20.04 149.901 20.492 149.173 20.82C148.453 21.148 147.677 21.312 146.845 21.312ZM146.845 18.816C147.509 18.816 148.105 18.64 148.633 18.288C149.161 17.936 149.577 17.472 149.881 16.896C150.193 16.312 150.349 15.68 150.349 15C150.349 14.304 150.189 13.664 149.869 13.08C149.557 12.496 149.137 12.032 148.609 11.688C148.081 11.336 147.493 11.16 146.845 11.16C146.189 11.16 145.593 11.336 145.057 11.688C144.529 12.04 144.109 12.508 143.797 13.092C143.493 13.676 143.341 14.312 143.341 15C143.341 15.712 143.501 16.356 143.821 16.932C144.141 17.508 144.565 17.968 145.093 18.312C145.629 18.648 146.213 18.816 146.845 18.816ZM165.584 13.476V21H163.088V14.088C163.088 13.552 162.956 13.064 162.692 12.624C162.436 12.184 162.088 11.836 161.648 11.58C161.216 11.316 160.728 11.184 160.184 11.184C159.656 11.184 159.172 11.316 158.732 11.58C158.292 11.836 157.94 12.184 157.676 12.624C157.412 13.064 157.28 13.552 157.28 14.088V21H154.784V9H157.28V10.272C157.696 9.776 158.208 9.384 158.816 9.096C159.424 8.808 160.08 8.664 160.784 8.664C161.672 8.664 162.48 8.88 163.208 9.312C163.936 9.744 164.512 10.324 164.936 11.052C165.368 11.78 165.584 12.588 165.584 13.476Z" fill="#12372A"/>
</svg>
